<svg width="318" height="63" viewBox="0 0 318 63" fill="none" xmlns="http://www.w3.org/2000/svg">
<g filter="url(#filter0_d_1_22)">
<path d="M6.57812 19.9062C6.42188 20.1562 6.3125 20.4062 6.25 20.6562C6.1875 20.875 6.14062 21.1562 6.10938 21.5C6.10938 21.6562 6.09375 21.8281 6.0625 22.0156C6.0625 22.1719 6.07812 22.3594 6.10938 22.5781C6.17188 23.0469 6.15625 23.3594 6.0625 23.5156C6 23.6406 5.96875 23.7812 5.96875 23.9375C5.75 24.0938 5.54688 24.1406 5.35938 24.0781C5.17188 24.0156 5.03125 23.9062 4.9375 23.75C4.875 23.5625 4.85938 23.3594 4.89062 23.1406C4.95312 22.9219 5.10938 22.7656 5.35938 22.6719C5.32812 22.5156 5.3125 22.4062 5.3125 22.3438C5.34375 22.25 5.375 22.1406 5.40625 22.0156C5.34375 21.8594 5.28125 21.7188 5.21875 21.5938C5.15625 21.4688 5.0625 21.3438 4.9375 21.2188C5.0625 21.0625 5.14062 20.9375 5.17188 20.8438C5.20312 20.7188 5.21875 20.5625 5.21875 20.375C5.25 20.0312 5.3125 19.6875 5.40625 19.3438C5.53125 19 5.76562 18.75 6.10938 18.5938C6.73438 18.5 7.25 18.3906 7.65625 18.2656C8.09375 18.1094 8.51562 18.125 8.92188 18.3125C8.42188 18.5312 7.98438 18.7812 7.60938 19.0625C7.23438 19.3438 6.89062 19.625 6.57812 19.9062ZM21.2031 18.3594C21.0469 18.3594 20.875 18.3906 20.6875 18.4531C20.5 18.4844 20.3125 18.5156 20.125 18.5469C19.9375 18.5469 19.7656 18.5312 19.6094 18.5C19.4844 18.4375 19.4219 18.3125 19.4219 18.125C19.6406 18 19.9844 17.9219 20.4531 17.8906C20.9219 17.8281 21.3906 17.7969 21.8594 17.7969C22.3281 17.7969 22.6406 17.7656 22.7969 17.7031C22.9844 17.6406 23.1406 17.625 23.2656 17.6562C23.3594 17.6875 23.4531 17.75 23.5469 17.8438C23.6406 17.9375 23.6719 18.0469 23.6406 18.1719C23.2969 18.2969 23.0781 18.3906 22.9844 18.4531C22.9219 18.4844 22.8594 18.5156 22.7969 18.5469C22.1094 18.6406 21.5781 18.5781 21.2031 18.3594ZM34.0938 31.1094C34.3125 31.4219 34.4375 31.75 34.4688 32.0938C34.5 32.4062 34.5 32.75 34.4688 33.125C34.4688 33.375 34.4531 33.6406 34.4219 33.9219C34.4219 34.1719 34.3906 34.375 34.3281 34.5312C34.1719 34.875 33.9531 35.1094 33.6719 35.2344C33.3906 35.3281 33.1094 35.4531 32.8281 35.6094C32.2031 35.6719 31.5469 35.7188 30.8594 35.75C30.1719 35.75 29.5781 35.7812 29.0781 35.8438C28.7344 35.8125 28.375 35.8125 28 35.8438C27.625 35.875 27.2812 35.8438 26.9688 35.75C26.8125 35.8438 26.6719 35.875 26.5469 35.8438C26.4219 35.7812 26.2812 35.7344 26.125 35.7031C25.875 35.6406 25.5625 35.6094 25.1875 35.6094C24.8125 35.6094 24.5469 35.6406 24.3906 35.7031C24.2969 35.7656 24.2188 35.8281 24.1562 35.8906C24.0938 35.9531 24.0156 36 23.9219 36.0312C23.7656 36.0938 23.5938 36.125 23.4062 36.125C23.2188 36.0938 23.0312 36.0781 22.8438 36.0781C22.5 36.1094 22.1562 36.125 21.8125 36.125C21.5 36.0938 21.125 36.1094 20.6875 36.1719C20.5625 36.7344 20.5312 37.2656 20.5938 37.7656C20.6562 38.2344 20.6406 38.8125 20.5469 39.5C20.6094 39.75 20.6562 40.0156 20.6875 40.2969C20.75 40.5781 20.75 40.8438 20.6875 41.0938C20.9375 41.5312 21.0781 42.0625 21.1094 42.6875C21.1719 43.3125 21.2188 43.9219 21.25 44.5156C21.25 44.7969 21.2031 45.0312 21.1094 45.2188C21.0469 45.4062 20.9844 45.625 20.9219 45.875C20.8906 45.9688 20.875 46.0781 20.875 46.2031C20.9062 46.2969 20.875 46.375 20.7812 46.4375C20.625 46.5 20.4219 46.5312 20.1719 46.5312C19.9531 46.5 19.7188 46.5 19.4688 46.5312C18.75 46.6562 18.125 46.7188 17.5938 46.7188C17.0938 46.6875 16.5938 46.6094 16.0938 46.4844C15.8438 46.4219 15.5312 46.375 15.1562 46.3438C14.8125 46.3125 14.5312 46.25 14.3125 46.1562C14.1562 46.1875 14 46.2031 13.8438 46.2031C13.6875 46.2031 13.5 46.2188 13.2812 46.25C13.0625 46.375 12.8281 46.5 12.5781 46.625C12.3281 46.75 12.0781 46.8594 11.8281 46.9531C11.5781 47.0156 11.3125 47.0469 11.0312 47.0469C10.7812 47.0156 10.5312 46.9375 10.2812 46.8125C10.1875 46.6562 10.0625 46.5156 9.90625 46.3906C9.71875 46.3906 9.54688 46.3438 9.39062 46.25C9.23438 46.125 9.125 45.9844 9.0625 45.8281C9 45.7656 8.96875 45.6875 8.96875 45.5938C8.96875 45.5 8.95312 45.4062 8.92188 45.3125C8.82812 45.0312 8.73438 44.75 8.64062 44.4688C8.57812 44.1875 8.53125 43.875 8.5 43.5312C8.4375 42.9062 8.42188 42.3125 8.45312 41.75C8.48438 41.1562 8.54688 40.5938 8.64062 40.0625C8.70312 39.6562 8.65625 39.375 8.5 39.2188C8.375 39.0312 8.29688 38.8438 8.26562 38.6562C8.35938 38.0312 8.39062 37.5312 8.35938 37.1562C8.35938 36.75 8.34375 36.3438 8.3125 35.9375C8.28125 35.5938 8.28125 35.25 8.3125 34.9062C8.34375 34.5625 8.34375 34.25 8.3125 33.9688C8.3125 33.875 8.29688 33.7812 8.26562 33.6875C8.23438 33.5938 8.21875 33.5156 8.21875 33.4531C8.25 33.1719 8.34375 32.8906 8.5 32.6094C8.65625 32.3281 8.73438 32.0469 8.73438 31.7656C8.70312 31.5469 8.60938 31.3438 8.45312 31.1562C8.32812 30.9375 8.23438 30.7188 8.17188 30.5C8.07812 29 7.95312 27.7031 7.79688 26.6094C7.67188 25.4844 7.5625 24.375 7.46875 23.2812C7.4375 22.9688 7.40625 22.6875 7.375 22.4375C7.375 22.1875 7.4375 21.9375 7.5625 21.6875C7.59375 21.625 7.625 21.5625 7.65625 21.5C7.71875 21.4062 7.78125 21.3125 7.84375 21.2188C8 20.9688 8.14062 20.7656 8.26562 20.6094C8.42188 20.4531 8.60938 20.2969 8.82812 20.1406C8.98438 20.0469 9.10938 19.9688 9.20312 19.9062C9.32812 19.8125 9.45312 19.7344 9.57812 19.6719C9.76562 19.7031 9.92188 19.6875 10.0469 19.625C10.2031 19.5625 10.3594 19.5312 10.5156 19.5312C11.2344 19.625 11.8125 19.625 12.25 19.5312C12.6875 19.4375 13.1406 19.4375 13.6094 19.5312C13.8906 19.375 14.25 19.3125 14.6875 19.3438C15.1562 19.3438 15.6094 19.3594 16.0469 19.3906C16.1406 19.4219 16.2188 19.4531 16.2812 19.4844C16.375 19.4844 16.4688 19.4844 16.5625 19.4844C17.4062 19.4219 18.0938 19.3906 18.625 19.3906C19.1562 19.3906 19.6875 19.3594 20.2188 19.2969C20.7812 19.6094 21.2188 19.7969 21.5312 19.8594C21.8438 19.9219 22.1719 19.9062 22.5156 19.8125C22.6719 19.75 22.8125 19.6875 22.9375 19.625C23.0625 19.5312 23.2031 19.5 23.3594 19.5312C23.4219 19.4688 23.5 19.4219 23.5938 19.3906C23.6875 19.3281 23.7656 19.2812 23.8281 19.25C24.0781 19.1875 24.3125 19.1562 24.5312 19.1562C24.7812 19.125 25.0469 19.1094 25.3281 19.1094C25.7656 19.1406 26.2344 19.125 26.7344 19.0625C27.2656 19 27.7812 18.9688 28.2812 18.9688C28.5 18.9688 28.7188 18.9531 28.9375 18.9219C29.1562 18.8906 29.3594 18.8906 29.5469 18.9219C29.8281 18.9219 30.125 18.9219 30.4375 18.9219C30.7812 18.9219 31.1094 18.875 31.4219 18.7812C31.7656 18.6562 32.0469 18.6094 32.2656 18.6406C32.4844 18.6406 32.6562 18.6562 32.7812 18.6875C32.875 18.7188 32.9531 18.7812 33.0156 18.875C33.1094 18.9375 33.2031 19.0156 33.2969 19.1094C33.4531 19.2031 33.5781 19.2656 33.6719 19.2969C33.7969 19.3281 33.8125 19.4531 33.7188 19.6719C33.9688 19.9219 34.1094 20.2812 34.1406 20.75C34.1719 21.1875 34.2188 21.625 34.2812 22.0625C34.3125 22.3125 34.3438 22.5312 34.375 22.7188C34.4375 22.9062 34.4688 23.0938 34.4688 23.2812C34.4375 23.5312 34.3438 23.7344 34.1875 23.8906C34.0312 24.0469 33.875 24.1875 33.7188 24.3125C33.4375 24.2812 33.1406 24.2812 32.8281 24.3125C32.5469 24.3438 32.2656 24.3594 31.9844 24.3594C31.8281 24.3594 31.6719 24.375 31.5156 24.4062C31.3594 24.4062 31.1719 24.4062 30.9531 24.4062C30.7031 24.3438 30.5312 24.3438 30.4375 24.4062C30.375 24.4375 30.2969 24.4531 30.2031 24.4531C29.8906 24.3906 29.6719 24.375 29.5469 24.4062C29.4531 24.4375 29.3594 24.4688 29.2656 24.5C28.1719 24.5 27.0938 24.5469 26.0312 24.6406C25.8125 24.6719 25.6094 24.7031 25.4219 24.7344C25.2656 24.7344 25.0781 24.75 24.8594 24.7812C24.7031 24.8125 24.5312 24.8125 24.3438 24.7812C24.1562 24.75 23.9844 24.7344 23.8281 24.7344C23.2969 24.7344 22.9375 24.6719 22.75 24.5469C22.5938 24.4219 22.3438 24.3906 22 24.4531C21.6562 24.6406 21.375 24.75 21.1562 24.7812C20.9688 24.8125 20.8281 24.875 20.7344 24.9688C20.6719 25.0938 20.625 25.2344 20.5938 25.3906C20.5625 25.5156 20.5156 25.6094 20.4531 25.6719C20.3906 26.3906 20.4062 27.125 20.5 27.875C20.625 28.5938 20.6562 29.3594 20.5938 30.1719C20.625 30.3594 20.7344 30.4844 20.9219 30.5469C21.1406 30.6094 21.375 30.6406 21.625 30.6406C21.875 30.6406 22.125 30.6406 22.375 30.6406C22.625 30.6406 22.8438 30.6562 23.0312 30.6875C23.4688 30.625 23.9062 30.5469 24.3438 30.4531C24.8125 30.3594 25.3125 30.2969 25.8438 30.2656C26.1562 30.2344 26.4688 30.2344 26.7812 30.2656C27.125 30.2969 27.4375 30.25 27.7188 30.125C27.9062 30.4062 28.2812 30.5781 28.8438 30.6406C28.9688 30.6719 29.0938 30.6875 29.2188 30.6875C29.375 30.6875 29.4844 30.6875 29.5469 30.6875C29.6094 30.6562 29.6719 30.625 29.7344 30.5938C29.8281 30.5312 29.9219 30.4688 30.0156 30.4062C30.1094 30.3438 30.2031 30.3125 30.2969 30.3125C30.3906 30.3125 30.4688 30.2969 30.5312 30.2656C30.625 30.2031 30.7031 30.1562 30.7656 30.125C30.8594 30.0625 30.9688 30.0312 31.0938 30.0312C31.7188 30.0312 32.1875 30.0312 32.5 30.0312C32.8438 30.0312 33.1719 30.0625 33.4844 30.125C33.7969 30.3125 34 30.6406 34.0938 31.1094ZM12.5312 22.8125C12.6562 22.3438 12.5156 22.0625 12.1094 21.9688C11.7031 21.8438 11.3125 21.8438 10.9375 21.9688C10.375 21.7812 10.0312 21.7812 9.90625 21.9688C9.78125 22.125 9.64062 22.3438 9.48438 22.625C9.42188 22.75 9.35938 22.8906 9.29688 23.0469C9.26562 23.1719 9.21875 23.2969 9.15625 23.4219C9.0625 23.7031 9.0625 24.0938 9.15625 24.5938C9.28125 25.0938 9.375 25.4531 9.4375 25.6719C9.53125 25.8281 9.67188 25.9219 9.85938 25.9531C10.0781 25.9531 10.2656 25.875 10.4219 25.7188C10.4531 25.375 10.4219 25.0625 10.3281 24.7812C10.2344 24.5 10.2188 24.2344 10.2812 23.9844C10.375 23.5469 10.6875 23.2031 11.2188 22.9531C11.6562 22.8906 11.9375 22.875 12.0625 22.9062C12.2188 22.9062 12.375 22.875 12.5312 22.8125ZM15.4844 22.625C15.5469 22.3125 15.5 22.0312 15.3438 21.7812C15.2188 21.5 15.0156 21.3594 14.7344 21.3594C14.5781 21.4844 14.3906 21.6562 14.1719 21.875C13.9844 22.0625 13.9375 22.2812 14.0312 22.5312C14.0938 22.6875 14.2344 22.8125 14.4531 22.9062C14.6719 22.9688 14.8906 22.9688 15.1094 22.9062L15.4844 22.625ZM18.7188 44.7969C18.9688 44.7031 19.0938 44.5156 19.0938 44.2344C19.125 43.9219 19.0625 43.6406 18.9062 43.3906C18.7812 43.4531 18.6562 43.4531 18.5312 43.3906C18.4062 43.3281 18.2656 43.3125 18.1094 43.3438C18.0469 43.375 17.9219 43.4375 17.7344 43.5312C17.5781 43.625 17.4688 43.7031 17.4062 43.7656C17.2188 43.9219 17.125 44.1562 17.125 44.4688C17.1562 44.75 17.2656 45 17.4531 45.2188C17.9531 45.1875 18.375 45.0469 18.7188 44.7969ZM19.8906 34.5781C19.7656 34.2344 19.6406 34.0625 19.5156 34.0625C19.3906 34.0312 19.2812 33.9844 19.1875 33.9219C18.9688 33.9844 18.7656 34.0625 18.5781 34.1562C18.4219 34.25 18.2344 34.3281 18.0156 34.3906C17.9531 34.5469 17.8281 34.6875 17.6406 34.8125C17.4844 34.9062 17.3906 35.0781 17.3594 35.3281C17.3594 35.4844 17.3594 35.6875 17.3594 35.9375C17.3906 36.1562 17.4531 36.3281 17.5469 36.4531C17.6406 36.5781 17.7812 36.6406 17.9688 36.6406C18.1562 36.6094 18.3281 36.5469 18.4844 36.4531C18.6406 36.3594 18.75 36.2344 18.8125 36.0781C18.9062 35.8906 18.9219 35.7031 18.8594 35.5156C19.0156 35.3281 19.1406 35.1406 19.2344 34.9531C19.3594 34.7344 19.5781 34.6094 19.8906 34.5781ZM30.8125 32.6094C31.1875 32.7656 31.5469 32.8438 31.8906 32.8438C32.2656 32.8438 32.4844 32.6094 32.5469 32.1406C32.4844 32.0469 32.4219 31.9688 32.3594 31.9062C32.2969 31.8125 32.2344 31.7188 32.1719 31.625C31.9219 31.5938 31.6875 31.6562 31.4688 31.8125C31.25 31.9688 31.0312 32.0938 30.8125 32.1875V32.6094ZM36.4844 20.8906C36.5781 21.0156 36.6406 21.2344 36.6719 21.5469C36.7031 21.8281 36.6875 22.0625 36.625 22.25C36.5938 22.3125 36.5 22.4062 36.3438 22.5312C36.2188 22.625 36.1094 22.6406 36.0156 22.5781C35.8281 22.4219 35.75 22.1094 35.7812 21.6406C35.8438 21.1406 35.9844 20.8594 36.2031 20.7969L36.4844 20.8906ZM35.875 23.6094C36.4062 23.7656 36.6875 24 36.7188 24.3125C36.75 24.5938 36.7344 24.8594 36.6719 25.1094C36.6406 25.3594 36.5156 25.5625 36.2969 25.7188C36.1094 25.8438 35.875 25.9375 35.5938 26C35.4375 26.0312 35.2344 26.0625 34.9844 26.0938C34.7344 26.125 34.5312 26.1406 34.375 26.1406C34.25 26.1406 34.1406 26.125 34.0469 26.0938C33.9531 26.0625 33.8438 26.0469 33.7188 26.0469C33.4375 26.1094 33.25 26.125 33.1562 26.0938C33.0625 26.0625 32.9688 26.0625 32.875 26.0938C32.5312 26.125 32.3281 26.125 32.2656 26.0938C32.2344 26.0312 32.1875 26 32.125 26C31.9688 25.9688 31.7812 25.9688 31.5625 26C31.3438 26 31.1406 26 30.9531 26C30.7969 26 30.6719 25.9688 30.5781 25.9062C30.4844 25.8125 30.4844 25.6719 30.5781 25.4844C30.8594 25.5469 31.1719 25.5625 31.5156 25.5312C31.8594 25.5 32.1719 25.4531 32.4531 25.3906C32.6094 25.5469 32.8281 25.5938 33.1094 25.5312C33.3906 25.4375 33.625 25.3594 33.8125 25.2969C34 25.2656 34.1562 25.25 34.2812 25.25C34.4062 25.25 34.5469 25.2188 34.7031 25.1562C34.7656 25.0938 34.8281 25.0469 34.8906 25.0156C34.9531 24.9531 35.0625 24.9219 35.2188 24.9219C35.4688 24.7969 35.625 24.625 35.6875 24.4062C35.7812 24.1875 35.8438 23.9219 35.875 23.6094ZM4.9375 25.5781C5.0625 25.4219 5.23438 25.3594 5.45312 25.3906C5.70312 25.4219 5.89062 25.4844 6.01562 25.5781C6.10938 25.8906 6.14062 26.25 6.10938 26.6562C6.10938 27.0625 6.07812 27.4375 6.01562 27.7812C5.82812 27.9375 5.5625 27.9219 5.21875 27.7344C4.90625 27.5156 4.73438 27.3125 4.70312 27.125C4.79688 26.7188 4.84375 26.4062 4.84375 26.1875C4.84375 25.9688 4.875 25.7656 4.9375 25.5781ZM22.5156 45.5C22.6094 45.4688 22.7031 45.375 22.7969 45.2188C22.9219 45.0625 23.0312 44.9219 23.125 44.7969C23.2188 44.6719 23.2969 44.6094 23.3594 44.6094C23.4531 44.5781 23.5312 44.6875 23.5938 44.9375C23.5625 45.0938 23.5469 45.2188 23.5469 45.3125C23.5469 45.4062 23.5469 45.5312 23.5469 45.6875C23.3906 46.1875 23.3125 46.625 23.3125 47C23.3438 47.375 23.3125 47.7344 23.2188 48.0781C23.1562 48.1406 23.0469 48.2188 22.8906 48.3125C22.7656 48.375 22.625 48.4062 22.4688 48.4062C22.375 48.4062 22.2656 48.3906 22.1406 48.3594C22.0156 48.3281 21.9062 48.3125 21.8125 48.3125C21.6562 48.3125 21.5 48.3438 21.3438 48.4062C21.2188 48.4375 21.0625 48.4688 20.875 48.5C20.6875 48.5312 20.4844 48.5469 20.2656 48.5469C20.0469 48.5156 19.8281 48.5312 19.6094 48.5938C19.3906 48.6562 19.1562 48.7188 18.9062 48.7812C18.6875 48.8125 18.5 48.7812 18.3438 48.6875C18.1875 48.5625 18.125 48.375 18.1562 48.125C18.1875 47.875 18.2812 47.7188 18.4375 47.6562C18.7812 47.5938 19.1406 47.5625 19.5156 47.5625C19.8906 47.5625 20.2344 47.5312 20.5469 47.4688C20.9531 47.5625 21.3438 47.5312 21.7188 47.375C22 47.2188 22.1719 46.9531 22.2344 46.5781C22.2969 46.2031 22.3906 45.8438 22.5156 45.5ZM9.29688 47.7031C9.51562 48.0781 9.82812 48.2344 10.2344 48.1719C10.6719 48.1094 11.1094 48.0312 11.5469 47.9375C11.3906 48.1875 11.2031 48.375 10.9844 48.5C10.7969 48.625 10.7188 48.8281 10.75 49.1094C10.5625 49.2969 10.3438 49.4219 10.0938 49.4844C9.84375 49.5469 9.59375 49.5625 9.34375 49.5312C9.125 49.4688 8.92188 49.375 8.73438 49.25C8.57812 49.0938 8.48438 48.8906 8.45312 48.6406C8.39062 48.4531 8.39062 48.2812 8.45312 48.125C8.54688 47.9375 8.64062 47.7656 8.73438 47.6094C8.82812 47.6406 8.90625 47.6875 8.96875 47.75C9.03125 47.7812 9.14062 47.7656 9.29688 47.7031ZM71.3069 43.7188C71.4631 44.0312 71.5256 44.3281 71.4944 44.6094C71.4944 44.8906 71.3537 45.1406 71.0725 45.3594C71.01 45.3906 70.885 45.4531 70.6975 45.5469C70.5412 45.6406 70.4319 45.6875 70.3694 45.6875C70.0881 45.6562 69.9006 45.6719 69.8069 45.7344C69.7444 45.7656 69.6662 45.7969 69.5725 45.8281C69.4162 45.8906 69.2444 45.9375 69.0569 45.9688C68.8694 46 68.6819 46.0156 68.4944 46.0156C68.1819 46.0469 67.8537 46.0312 67.51 45.9688C67.1662 45.9062 66.8381 45.9062 66.5256 45.9688C66.2131 46.0312 65.9319 46.1562 65.6819 46.3438C65.4631 46.5312 65.2756 46.7031 65.1194 46.8594C64.8069 46.9531 64.4319 47.0781 63.9944 47.2344C63.5881 47.3594 63.2131 47.4531 62.8694 47.5156C62.5881 47.5781 62.2756 47.5469 61.9319 47.4219C61.5881 47.2656 61.3537 47.0781 61.2287 46.8594C61.1662 46.7656 61.1037 46.6562 61.0412 46.5312C61.01 46.375 60.9787 46.2344 60.9475 46.1094C60.885 45.7656 60.8069 45.5625 60.7131 45.5C60.6194 45.4062 60.5412 45.3125 60.4787 45.2188C60.4162 45.1562 60.385 45.0781 60.385 44.9844C60.385 44.8594 60.3537 44.75 60.2912 44.6562C60.2287 44.5625 60.1662 44.4844 60.1037 44.4219C60.0412 44.3281 59.9944 44.2188 59.9631 44.0938C59.9006 44.0312 59.8694 43.9531 59.8694 43.8594C59.8694 43.7656 59.8381 43.6719 59.7756 43.5781C59.7131 43.4844 59.6506 43.3906 59.5881 43.2969C59.5256 43.1719 59.4944 43.0312 59.4944 42.875C59.3069 42.625 59.1506 42.3438 59.0256 42.0312C58.9319 41.7188 58.76 41.4844 58.51 41.3281C58.2912 41.3594 58.0881 41.375 57.9006 41.375C57.7444 41.3438 57.5569 41.3281 57.3381 41.3281C57.0881 41.3594 56.8381 41.4062 56.5881 41.4688C56.3694 41.5 56.135 41.5469 55.885 41.6094C55.76 41.6094 55.635 41.6094 55.51 41.6094C55.4162 41.5781 55.2912 41.5625 55.135 41.5625C54.9787 41.5312 54.8225 41.5312 54.6662 41.5625C54.5412 41.5625 54.4162 41.5469 54.2912 41.5156C53.885 41.3906 53.6194 41.3438 53.4944 41.375C53.3694 41.4062 53.26 41.4375 53.1662 41.4688C53.0725 41.5 52.9787 41.5469 52.885 41.6094C52.8225 41.6719 52.7444 41.7188 52.6506 41.75C52.4944 41.8125 52.3069 41.8281 52.0881 41.7969C51.9006 41.7656 51.7131 41.75 51.5256 41.75C51.3069 41.75 51.0881 41.7656 50.8694 41.7969C50.6819 41.8281 50.4631 41.8594 50.2131 41.8906C50.0569 41.9219 49.885 41.9375 49.6975 41.9375C49.51 41.9062 49.3381 41.9062 49.1819 41.9375C48.6819 42 48.1506 42.0469 47.5881 42.0781C47.0256 42.1094 46.4787 42.1562 45.9475 42.2188C45.76 42.4062 45.635 42.625 45.5725 42.875C45.51 43.125 45.4162 43.375 45.2912 43.625C45.2287 43.7188 45.1662 43.8125 45.1037 43.9062C45.0412 43.9688 44.9944 44.0625 44.9631 44.1875C44.9006 44.3125 44.885 44.4531 44.9162 44.6094C44.9787 44.7344 44.9944 44.875 44.9631 45.0312C44.9631 45.1562 44.885 45.3906 44.7287 45.7344C44.5725 46.0781 44.4475 46.3125 44.3537 46.4375C44.2287 46.5625 44.0256 46.6875 43.7444 46.8125C43.4944 46.9062 43.2444 46.9375 42.9944 46.9062C42.5256 46.8438 42.1506 46.8906 41.8694 47.0469C41.5881 47.2031 41.2756 47.3125 40.9319 47.375C40.7131 47.375 40.5256 47.375 40.3694 47.375C40.2131 47.3438 40.01 47.3125 39.76 47.2812C39.635 47.1562 39.4944 47.0625 39.3381 47C39.2131 46.9375 39.0725 46.875 38.9162 46.8125C38.885 46.7188 38.8225 46.625 38.7287 46.5312C38.635 46.4375 38.5881 46.3438 38.5881 46.25C38.5881 46.0312 38.6506 45.8125 38.7756 45.5938C38.9319 45.3438 39.0412 45.1094 39.1037 44.8906C39.1662 44.7656 39.1975 44.6562 39.1975 44.5625C39.1975 44.4375 39.2287 44.3125 39.2912 44.1875C39.4162 43.875 39.5569 43.5469 39.7131 43.2031C39.9006 42.8594 40.0256 42.5469 40.0881 42.2656C39.7444 42.2656 39.4162 42.2969 39.1037 42.3594C38.7912 42.4219 38.4787 42.4219 38.1662 42.3594C38.01 42.2969 37.8069 42.25 37.5569 42.2188C37.3381 42.1562 37.1975 42.0625 37.135 41.9375C37.0725 41.8125 36.9787 41.6406 36.8537 41.4219C36.76 41.1719 36.7131 40.9375 36.7131 40.7188C36.7444 40.5312 36.8225 40.375 36.9475 40.25C37.0725 40.0938 37.135 39.9219 37.135 39.7344C37.1037 39.5781 37.0256 39.4375 36.9006 39.3125C36.8069 39.1875 36.7444 39.0156 36.7131 38.7969C36.6819 38.5469 36.7444 38.3281 36.9006 38.1406C37.0569 37.9531 37.1662 37.7812 37.2287 37.625C37.5725 37.4375 37.9475 37.3125 38.3537 37.25C38.7912 37.1562 39.2444 37.0938 39.7131 37.0625C40.1819 37.0312 40.6506 37.0156 41.1194 37.0156C41.5881 37.0156 42.0256 36.9844 42.4319 36.9219C42.6506 36.5156 42.8381 36.0938 42.9944 35.6562C43.1506 35.2188 43.3225 34.7812 43.51 34.3438C43.8225 34.2188 44.0725 34.0625 44.26 33.875C44.4475 33.6875 44.6194 33.4688 44.7756 33.2188C44.7756 33 44.7912 32.7969 44.8225 32.6094C44.885 32.4219 44.9006 32.2344 44.8694 32.0469C44.7756 31.5469 44.7912 31.1719 44.9162 30.9219C45.0412 30.6719 45.1506 30.4531 45.2444 30.2656C45.3069 30.1094 45.3537 29.9531 45.385 29.7969C45.4475 29.6406 45.51 29.4844 45.5725 29.3281C45.76 28.9531 45.9162 28.6406 46.0412 28.3906C46.1662 28.1094 46.4006 27.8906 46.7444 27.7344C46.9006 27.4844 47.0256 27.2188 47.1194 26.9375C47.2444 26.6562 47.2756 26.3438 47.2131 26C47.0881 25.6562 47.0569 25.4219 47.1194 25.2969C47.1819 25.1719 47.2444 25.0312 47.3069 24.875C47.3694 24.75 47.4006 24.625 47.4006 24.5C47.4319 24.3438 47.4631 24.2188 47.4944 24.125C47.5569 24.0625 47.6037 23.9844 47.635 23.8906C47.6662 23.7969 47.7131 23.7188 47.7756 23.6562C47.9006 23.1875 48.01 22.8594 48.1037 22.6719C48.2287 22.4531 48.3225 22.2344 48.385 22.0156C48.135 21.6719 47.8694 21.2656 47.5881 20.7969C47.3069 20.3281 47.2444 19.8281 47.4006 19.2969C47.8694 19.0469 48.3381 18.8281 48.8069 18.6406C49.3069 18.4531 49.7912 18.2344 50.26 17.9844C50.4162 18.0469 50.5256 18.0469 50.5881 17.9844C50.6819 17.8906 50.7756 17.8438 50.8694 17.8438C50.9631 17.8438 51.0412 17.875 51.1037 17.9375C51.1975 18 51.2756 18.0469 51.3381 18.0781C51.8694 18.0781 52.2287 18.0781 52.4162 18.0781C52.6037 18.0469 52.7756 17.9219 52.9319 17.7031C53.0256 17.6094 53.1037 17.5 53.1662 17.375C53.2287 17.2188 53.3225 17.0625 53.4475 16.9062C53.51 16.8125 53.6037 16.75 53.7287 16.7188C53.885 16.6562 54.0412 16.5938 54.1975 16.5312C54.3537 16.4688 54.51 16.4062 54.6662 16.3438C54.8225 16.25 55.0256 16.2188 55.2756 16.25C55.4006 16.0938 55.5256 16.0781 55.6506 16.2031C55.7756 16.2969 55.885 16.3594 55.9787 16.3906C56.0725 16.4219 56.1506 16.4375 56.2131 16.4375C56.3069 16.4062 56.4006 16.4062 56.4944 16.4375C56.8069 16.5 57.0412 16.6719 57.1975 16.9531C57.3537 17.2344 57.5569 17.4375 57.8069 17.5625C58.1506 18.1875 58.4944 18.7969 58.8381 19.3906C59.2131 19.9531 59.5725 20.5625 59.9162 21.2188C60.0725 21.5312 60.2444 21.8281 60.4319 22.1094C60.6194 22.3594 60.8069 22.6406 60.9944 22.9531C61.0881 23.1406 61.1662 23.3281 61.2287 23.5156C61.2912 23.7031 61.385 23.875 61.51 24.0312C61.7287 24.3438 61.9319 24.6562 62.1194 24.9688C62.3069 25.2812 62.4944 25.6094 62.6819 25.9531C62.8381 26.2031 62.9787 26.4531 63.1037 26.7031C63.26 26.9531 63.3225 27.2656 63.2912 27.6406C63.2912 27.7344 63.26 27.8281 63.1975 27.9219C63.1662 27.9844 63.1662 28.0781 63.1975 28.2031C63.2287 28.5156 63.3537 28.7812 63.5725 29C63.8225 29.1875 64.0412 29.4062 64.2287 29.6562C64.3537 29.8125 64.4475 30 64.51 30.2188C64.6037 30.4062 64.7131 30.5938 64.8381 30.7812C65.0881 31.25 65.3537 31.75 65.635 32.2812C65.9475 32.7812 66.2287 33.25 66.4787 33.6875C66.4162 33.8438 66.3694 34.0156 66.3381 34.2031C66.3381 34.3906 66.4006 34.5312 66.5256 34.625C66.7131 34.5938 66.8537 34.625 66.9475 34.7188C67.0412 34.7812 67.1037 34.8906 67.135 35.0469C67.1975 35.1719 67.2444 35.3125 67.2756 35.4688C67.3381 35.625 67.4006 35.75 67.4631 35.8438C67.3069 36.0938 67.2287 36.375 67.2287 36.6875C67.26 36.9688 67.4944 37.1094 67.9319 37.1094C68.2756 37.8594 68.6506 38.5938 69.0569 39.3125C69.4631 40.0312 69.8694 40.7656 70.2756 41.5156C70.4631 41.8594 70.6194 42.2344 70.7444 42.6406C70.8694 43.0469 71.0569 43.4062 71.3069 43.7188ZM40.6506 45.6406C40.9006 45.5781 41.0725 45.4062 41.1662 45.125C41.26 44.8438 41.26 44.5781 41.1662 44.3281C40.8537 44.3281 40.6506 44.4844 40.5569 44.7969C40.4944 45.1094 40.5256 45.3906 40.6506 45.6406ZM42.385 41.0938C42.3537 40.875 42.2444 40.7188 42.0569 40.625C41.9006 40.5312 41.7131 40.4844 41.4944 40.4844C41.3069 40.4844 41.135 40.5469 40.9787 40.6719C40.8225 40.7969 40.7287 40.9688 40.6975 41.1875C41.01 41.1875 41.2287 41.2812 41.3537 41.4688C41.51 41.625 41.6662 41.8125 41.8225 42.0312C41.8225 42.1562 41.7756 42.3125 41.6819 42.5C41.6194 42.6562 41.6662 42.7969 41.8225 42.9219C41.9475 42.7656 42.0569 42.5625 42.1506 42.3125C42.2756 42.0625 42.3537 41.8125 42.385 41.5625V41.0938ZM49.8381 19.9531C49.5256 20.1094 49.385 20.375 49.4162 20.75C49.4475 21.0938 49.6037 21.375 49.885 21.5938C50.3225 21.4375 50.5569 21.2344 50.5881 20.9844C50.6506 20.7031 50.6975 20.4062 50.7287 20.0938C50.6662 19.9062 50.5412 19.8125 50.3537 19.8125C50.1662 19.8125 49.9944 19.8594 49.8381 19.9531ZM53.6819 36.3125C53.9631 36.1875 54.26 36.1406 54.5725 36.1719C54.885 36.1719 55.2131 36.1562 55.5569 36.125C55.4006 35.6875 55.2131 35.3281 54.9944 35.0469C54.7756 34.7656 54.635 34.4219 54.5725 34.0156C54.51 33.8594 54.51 33.7031 54.5725 33.5469C54.635 33.3594 54.6506 33.1562 54.6194 32.9375C54.5881 32.7812 54.4631 32.5781 54.2444 32.3281C54.0256 32.0469 53.8381 31.875 53.6819 31.8125C53.3694 31.6875 53.1662 31.5312 53.0725 31.3438C52.9787 31.125 52.9006 30.9375 52.8381 30.7812C52.6194 30.3438 52.4006 29.9062 52.1819 29.4688C51.9944 29 51.7756 28.5938 51.5256 28.25C51.1819 29.0625 50.8225 29.875 50.4475 30.6875C50.1037 31.5 49.7756 32.3438 49.4631 33.2188C49.4006 33.3125 49.2912 33.3906 49.135 33.4531C48.9787 33.4844 48.8694 33.5781 48.8069 33.7344C48.7444 33.8281 48.7131 33.9219 48.7131 34.0156C48.7444 34.1094 48.7444 34.2031 48.7131 34.2969C48.6506 34.6406 48.5256 35 48.3381 35.375C48.1819 35.75 48.0725 36.1406 48.01 36.5469C48.385 36.5469 48.8069 36.5156 49.2756 36.4531C49.7756 36.3594 50.2444 36.3125 50.6819 36.3125C50.7444 36.4062 50.8225 36.4531 50.9162 36.4531C51.0412 36.4531 51.1662 36.4844 51.2912 36.5469C51.4475 36.7344 51.6194 36.875 51.8069 36.9688C52.0256 37.0312 52.1662 37.0781 52.2287 37.1094C52.635 37.2031 52.9162 37.125 53.0725 36.875C53.2287 36.625 53.4319 36.4375 53.6819 36.3125ZM60.76 40.2031C61.01 40.2656 61.1662 40.2031 61.2287 40.0156C61.3225 39.8281 61.3381 39.625 61.2756 39.4062C61.0881 39.3438 60.9475 39.2188 60.8537 39.0312C60.76 38.8438 60.5725 38.7812 60.2912 38.8438C60.3537 39.0938 60.4006 39.3594 60.4319 39.6406C60.4944 39.8906 60.6037 40.0781 60.76 40.2031ZM65.3069 43.9062C65.3069 43.75 65.2912 43.5938 65.26 43.4375C65.26 43.2812 65.1975 43.1562 65.0725 43.0625C64.885 43.125 64.6975 43.2188 64.51 43.3438C64.3537 43.4375 64.1506 43.5 63.9006 43.5312C63.7131 43.3125 63.51 43.125 63.2912 42.9688C63.0725 42.8125 62.9162 42.5938 62.8225 42.3125C62.635 42.1875 62.4631 42.0469 62.3069 41.8906C62.1819 41.7344 62.0412 41.5781 61.885 41.4219C61.76 41.5156 61.6975 41.6406 61.6975 41.7969C61.6975 41.9219 61.6662 42.0469 61.6037 42.1719C61.6975 42.3906 61.8225 42.5938 61.9787 42.7812C62.0412 42.9375 62.1037 43.1094 62.1662 43.2969C62.26 43.4844 62.3381 43.6562 62.4006 43.8125C62.4631 44.0938 62.5412 44.3594 62.635 44.6094C62.7287 44.8281 62.9006 44.9844 63.1506 45.0781C63.6819 44.7031 64.135 44.4844 64.51 44.4219C64.885 44.3594 65.1506 44.1875 65.3069 43.9062ZM44.4475 20.6562C44.2287 20.625 44.1037 20.4844 44.0725 20.2344C44.0725 19.9844 44.0412 19.75 43.9787 19.5312C44.0412 19.3438 44.1819 19.2656 44.4006 19.2969C44.6194 19.2969 44.8069 19.3281 44.9631 19.3906C45.1506 19.8906 45.1662 20.25 45.01 20.4688C44.885 20.6562 44.6975 20.7188 44.4475 20.6562ZM45.8069 22.8125C45.8069 22.6875 45.76 22.5625 45.6662 22.4375C45.6037 22.2812 45.5256 22.1562 45.4319 22.0625C45.3381 21.9375 45.26 21.8125 45.1975 21.6875C45.135 21.5625 45.1194 21.4219 45.1506 21.2656C45.1819 21.1719 45.26 21.0469 45.385 20.8906C45.51 20.7344 45.635 20.6562 45.76 20.6562C45.885 20.625 46.01 20.6719 46.135 20.7969C46.26 20.8906 46.3694 21.0312 46.4631 21.2188C46.5569 21.375 46.635 21.5312 46.6975 21.6875C46.7912 21.8438 46.8694 21.9688 46.9319 22.0625C46.8694 22.1562 46.8694 22.2812 46.9319 22.4375C47.0256 22.5625 47.0412 22.7031 46.9787 22.8594C46.9475 22.9531 46.885 23.0469 46.7912 23.1406C46.7287 23.2344 46.6662 23.3281 46.6037 23.4219C46.4475 23.6719 46.3225 23.9531 46.2287 24.2656C46.1662 24.5469 46.0569 24.8438 45.9006 25.1562C45.7444 25.375 45.6037 25.6094 45.4787 25.8594C45.3537 26.0781 45.1506 26.0781 44.8694 25.8594C44.7756 25.6406 44.7912 25.4531 44.9162 25.2969C45.0725 25.1094 45.1819 24.8906 45.2444 24.6406C45.4006 24.1406 45.5412 23.7812 45.6662 23.5625C45.7912 23.3125 45.8381 23.0625 45.8069 22.8125ZM44.6819 24.1719C44.5256 24.2969 44.385 24.3125 44.26 24.2188C44.1662 24.0938 44.1194 23.9375 44.1194 23.75C44.1194 23.6875 44.135 23.6094 44.1662 23.5156C44.2287 23.3906 44.26 23.2656 44.26 23.1406C44.2912 22.9844 44.2912 22.8438 44.26 22.7188C44.26 22.5625 44.3069 22.4688 44.4006 22.4375C44.9319 22.875 45.1194 23.2188 44.9631 23.4688C44.8381 23.6875 44.7444 23.9219 44.6819 24.1719ZM44.7756 27.6406C44.6194 27.8594 44.4006 27.9062 44.1194 27.7812C43.9944 27.5312 44.0412 27.25 44.26 26.9375C44.51 26.5938 44.7444 26.4531 44.9631 26.5156C45.1194 26.7656 45.1662 26.9062 45.1037 26.9375C45.0725 26.9688 45.0256 27.0312 44.9631 27.125C44.9319 27.1875 44.9006 27.2812 44.8694 27.4062C44.8694 27.5 44.8381 27.5781 44.7756 27.6406ZM50.1194 32.75C50.3694 32.5625 50.5256 32.5938 50.5881 32.8438C50.6819 33.0938 50.6819 33.3281 50.5881 33.5469C50.5256 33.7031 50.4162 33.9219 50.26 34.2031C50.135 34.4531 50.0881 34.6562 50.1194 34.8125C50.1506 34.9688 50.2131 35.0781 50.3069 35.1406C50.4006 35.1719 50.4944 35.25 50.5881 35.375C50.4944 35.5938 50.26 35.7031 49.885 35.7031C49.5412 35.7031 49.26 35.7188 49.0412 35.75C49.0412 35.5938 49.0412 35.4688 49.0412 35.375C49.0725 35.25 49.1037 35.1094 49.135 34.9531C49.1975 34.7969 49.2756 34.6719 49.3694 34.5781C49.4631 34.4531 49.5412 34.3125 49.6037 34.1562C49.7912 33.7812 49.885 33.5312 49.885 33.4062C49.9475 33.2812 49.9787 33.1562 49.9787 33.0312C50.01 32.9062 50.0569 32.8125 50.1194 32.75ZM51.2912 35.7969C51.135 35.6719 51.0725 35.5625 51.1037 35.4688C51.1662 35.3438 51.26 35.25 51.385 35.1875C51.51 35.125 51.6506 35.1094 51.8069 35.1406C51.9631 35.1719 52.0881 35.25 52.1819 35.375C52.1506 35.5312 52.0569 35.6562 51.9006 35.75C51.7444 35.8438 51.5412 35.8594 51.2912 35.7969ZM45.9475 45.5938C46.01 45.8125 45.9944 46.0156 45.9006 46.2031C45.8069 46.3594 45.7287 46.5469 45.6662 46.7656C45.635 46.9531 45.6194 47.1094 45.6194 47.2344C45.6194 47.3281 45.5881 47.4531 45.5256 47.6094C45.3069 47.8594 45.1819 48.0312 45.1506 48.125C45.1506 48.2188 45.1194 48.2969 45.0569 48.3594C44.9006 48.4844 44.6662 48.5625 44.3537 48.5938C44.0412 48.5938 43.7444 48.625 43.4631 48.6875C43.3694 48.6875 43.2756 48.7031 43.1819 48.7344C43.0881 48.7656 43.01 48.7969 42.9475 48.8281C42.7912 48.8281 42.6194 48.8281 42.4319 48.8281C42.2756 48.8281 42.135 48.8438 42.01 48.875C41.9475 48.9062 41.8537 48.9531 41.7287 49.0156C41.635 49.0781 41.5569 49.125 41.4944 49.1562C41.3381 49.1875 41.1819 49.1719 41.0256 49.1094C40.9006 49.0156 40.7756 48.9531 40.6506 48.9219C40.6506 48.7969 40.6662 48.7031 40.6975 48.6406C40.7287 48.5781 40.7444 48.5 40.7444 48.4062C40.9006 48.2812 41.0412 48.2344 41.1662 48.2656C41.3225 48.2969 41.4944 48.2969 41.6819 48.2656C41.8069 48.2656 41.9162 48.25 42.01 48.2188C42.135 48.1562 42.2444 48.1094 42.3381 48.0781C42.7444 47.9844 43.1819 47.9531 43.6506 47.9844C44.1194 47.9844 44.4787 47.8906 44.7287 47.7031C44.885 47.5781 45.0256 47.3281 45.1506 46.9531C45.2444 46.6094 45.3069 46.4375 45.3381 46.4375C45.4006 46.4062 45.4319 46.3594 45.4319 46.2969C45.4944 46.1719 45.5256 46.0469 45.5256 45.9219C45.5569 45.7969 45.635 45.6875 45.76 45.5938H45.9475ZM62.9162 48.5469C63.1037 48.4844 63.2912 48.4219 63.4787 48.3594C63.6662 48.2656 63.8694 48.25 64.0881 48.3125C64.0256 48.5625 63.8537 48.75 63.5725 48.875C63.2912 49 63.0256 49.1406 62.7756 49.2969C62.5256 49.4219 62.2756 49.5625 62.0256 49.7188C61.8069 49.8438 61.5412 49.9375 61.2287 50C61.0725 50.0312 60.9162 50.0469 60.76 50.0469C60.6037 50.0469 60.4787 50.0156 60.385 49.9531C60.3225 49.8281 60.2912 49.7188 60.2912 49.625C60.3225 49.5312 60.3694 49.4375 60.4319 49.3438C60.4006 49.3125 60.3537 49.1406 60.2912 48.8281C60.1975 48.6719 60.0256 48.5625 59.7756 48.5C59.5256 48.4062 59.3225 48.2812 59.1662 48.125C58.9787 47.9375 58.8694 47.7031 58.8381 47.4219C58.8069 47.1094 58.8225 46.7812 58.885 46.4375C59.0412 46.3125 59.1662 46.3281 59.26 46.4844C59.385 46.6406 59.4787 46.7656 59.5412 46.8594C59.8537 47.2656 60.1037 47.625 60.2912 47.9375C60.4475 48.1562 60.635 48.3594 60.8537 48.5469C61.0725 48.7031 61.3381 48.7969 61.6506 48.8281C61.8069 48.8281 61.9631 48.7969 62.1194 48.7344C62.2756 48.6719 62.4319 48.625 62.5881 48.5938L62.9162 48.5469ZM38.9162 47.8438C39.2912 47.7812 39.635 47.8594 39.9475 48.0781C40.01 48.3594 39.9944 48.5781 39.9006 48.7344C39.8381 48.8906 39.7131 49.0156 39.5256 49.1094C39.3694 49.1719 39.1975 49.1875 39.01 49.1562C38.8537 49.125 38.7131 49.0312 38.5881 48.875C38.5881 48.375 38.6975 48.0312 38.9162 47.8438ZM66.8069 47.4688C67.2131 47.5312 67.6194 47.4844 68.0256 47.3281C68.4319 47.1719 68.8381 47.1094 69.2444 47.1406C69.2444 47.4531 69.0881 47.6562 68.7756 47.75C68.4631 47.8438 68.1662 47.9219 67.885 47.9844C67.6975 48.0469 67.5412 48.0938 67.4162 48.125C67.3225 48.1562 67.1975 48.2031 67.0412 48.2656C66.6975 48.3281 66.3694 48.4375 66.0569 48.5938C65.7756 48.75 65.4631 48.7656 65.1194 48.6406C65.0569 48.5469 65.0256 48.4375 65.0256 48.3125C65.0256 48.1875 65.01 48.0625 64.9787 47.9375C65.135 47.7812 65.3225 47.6406 65.5412 47.5156C65.76 47.3594 65.9944 47.2031 66.2444 47.0469C66.4006 47.0469 66.51 47.0938 66.5725 47.1875C66.6662 47.25 66.7444 47.3438 66.8069 47.4688ZM79.5044 17.4219C79.3481 17.4219 79.2075 17.375 79.0825 17.2812C78.9575 17.1562 78.8637 17.0469 78.8012 16.9531C79.02 16.5469 79.2231 16.3438 79.4106 16.3438C79.5981 16.3438 79.7856 16.375 79.9731 16.4375C80.1919 16.5 80.4106 16.5625 80.6294 16.625C80.8481 16.6875 81.0512 16.7031 81.2387 16.6719C81.395 16.6406 81.5981 16.5625 81.8481 16.4375C82.0981 16.2812 82.3169 16.3594 82.5044 16.6719C82.1606 16.9531 81.895 17.1094 81.7075 17.1406C81.52 17.1719 81.3169 17.1719 81.0981 17.1406C80.9731 17.1406 80.8481 17.125 80.7231 17.0938C80.5981 17.0625 80.4731 17.0625 80.3481 17.0938C80.1919 17.0938 80.0356 17.1562 79.8794 17.2812C79.7544 17.375 79.6294 17.4219 79.5044 17.4219ZM76.8325 17.6562C76.4887 17.7188 76.2231 17.875 76.0356 18.125C75.8794 18.3438 75.7075 18.5625 75.52 18.7812C75.395 19.0625 75.3169 19.3906 75.2856 19.7656C75.2544 20.1094 75.0981 20.3281 74.8169 20.4219C74.6919 19.9531 74.6606 19.5781 74.7231 19.2969C74.8169 18.9844 74.8637 18.6719 74.8637 18.3594C74.895 18.0781 74.895 17.7969 74.8637 17.5156C74.8325 17.2031 74.895 16.9062 75.0512 16.625C75.4887 16.5312 75.7231 16.5469 75.7544 16.6719C75.8169 16.7969 75.9262 16.8906 76.0825 16.9531C76.27 17.0156 76.4106 16.9844 76.5044 16.8594C76.6294 16.7031 76.77 16.5938 76.9262 16.5312C77.3325 16.3125 77.7075 16.3594 78.0512 16.6719C78.1762 16.8281 78.2856 16.9219 78.3794 16.9531C78.4731 16.9531 78.5044 17.0156 78.4731 17.1406C78.4731 17.2969 78.3481 17.375 78.0981 17.375C77.8481 17.375 77.645 17.375 77.4887 17.375C77.145 17.4688 76.9262 17.5625 76.8325 17.6562ZM107.911 19.5312C107.692 19.4062 107.645 19.25 107.77 19.0625C107.895 18.8438 108.082 18.7188 108.332 18.6875C108.551 18.6562 108.754 18.6719 108.942 18.7344C109.161 18.7969 109.411 18.8281 109.692 18.8281C109.911 18.8281 110.114 18.8281 110.301 18.8281C110.52 18.8281 110.707 18.9062 110.864 19.0625C111.02 19.1875 111.098 19.3281 111.098 19.4844C111.129 19.6406 111.114 19.8125 111.051 20C110.989 20.1875 110.911 20.3906 110.817 20.6094C110.754 20.7969 110.723 20.9844 110.723 21.1719C110.661 21.2344 110.582 21.2812 110.489 21.3125C110.395 21.3438 110.301 21.4062 110.207 21.5C110.051 21.4062 110.004 21.2812 110.067 21.125C110.129 20.9688 110.161 20.8281 110.161 20.7031C110.192 20.5469 110.176 20.4062 110.114 20.2812C110.082 20.1562 110.067 20.0312 110.067 19.9062C109.817 19.5938 109.489 19.4844 109.082 19.5781C108.707 19.6406 108.317 19.625 107.911 19.5312ZM95.3481 21.7344C95.3481 21.5781 95.3637 21.4375 95.395 21.3125C95.4575 21.1562 95.4419 21 95.3481 20.8438C95.4106 20.5938 95.4262 20.3281 95.395 20.0469C95.395 19.7656 95.4575 19.5469 95.5825 19.3906C95.645 19.2344 95.77 19.1094 95.9575 19.0156C96.145 18.8906 96.3325 18.8281 96.52 18.8281C96.7387 18.7969 96.9262 18.8281 97.0825 18.9219C97.27 18.9844 97.395 19.125 97.4575 19.3438C97.3325 19.4688 97.1762 19.5625 96.9887 19.625C96.8325 19.6562 96.6762 19.7031 96.52 19.7656C96.5512 20.2969 96.5356 20.8281 96.4731 21.3594C96.4419 21.8906 96.395 22.4531 96.3325 23.0469C96.0825 23.1406 95.9419 23.1875 95.9106 23.1875C95.8794 23.1875 95.8481 23.1719 95.8169 23.1406C95.7231 22.9531 95.6137 22.7344 95.4887 22.4844C95.395 22.2344 95.3481 21.9844 95.3481 21.7344ZM106.082 46.8125C105.926 46.8438 105.786 46.8125 105.661 46.7188C105.567 46.625 105.457 46.5781 105.332 46.5781C105.082 46.5469 104.895 46.5781 104.77 46.6719C104.645 46.7656 104.504 46.8438 104.348 46.9062C103.348 46.875 102.317 46.875 101.254 46.9062C100.223 46.9062 99.2387 46.75 98.3012 46.4375C98.2075 46.2812 98.1137 46.1406 98.02 46.0156C97.9262 45.8906 97.8169 45.75 97.6919 45.5938C97.6294 45.4688 97.5356 45.3281 97.4106 45.1719C97.2856 44.9844 97.2075 44.8125 97.1762 44.6562C97.1762 44.5312 97.2075 44.4375 97.27 44.375C97.3325 44.3125 97.3794 44.2344 97.4106 44.1406C97.4731 43.8906 97.4731 43.6094 97.4106 43.2969C97.3794 42.9844 97.3169 42.75 97.2231 42.5938C97.0669 42.375 96.8794 42.2344 96.6606 42.1719C96.4419 42.0781 96.2387 41.9375 96.0512 41.75C95.9262 41.3125 95.8012 40.9062 95.6762 40.5312C95.52 40.375 95.3637 40.25 95.2075 40.1562C95.0512 40.0312 94.8325 39.9375 94.5512 39.875C94.27 39.7188 94.0669 39.5312 93.9419 39.3125C93.8481 39.0938 93.7231 38.8125 93.5669 38.4688C93.4419 38.25 93.3012 38.0625 93.145 37.9062C93.02 37.7188 92.9575 37.4688 92.9575 37.1562C92.9575 37 92.9731 36.8594 93.0044 36.7344C93.0669 36.5781 93.0825 36.4219 93.0512 36.2656C93.02 36.0469 92.9106 35.8281 92.7231 35.6094C92.5356 35.3906 92.2856 35.2969 91.9731 35.3281C91.7231 35.2031 91.5356 34.9531 91.4106 34.5781C91.3169 34.2031 91.1919 33.8906 91.0356 33.6406C90.7856 33.1094 90.4731 32.625 90.0981 32.1875C89.7856 31.6562 89.52 31.1406 89.3012 30.6406C89.0825 30.1406 88.8012 29.6719 88.4575 29.2344C88.3637 29.0469 88.2544 28.8594 88.1294 28.6719C88.0356 28.8594 87.9731 29.0625 87.9419 29.2812C87.9419 29.4688 87.9106 29.6875 87.8481 29.9375C87.7856 30.1875 87.7075 30.4531 87.6137 30.7344C87.52 31.0156 87.4887 31.25 87.52 31.4375C87.645 31.8125 87.6919 32.0469 87.6606 32.1406C87.6294 32.2031 87.6137 32.2812 87.6137 32.375C87.5825 32.6562 87.5825 32.9688 87.6137 33.3125C87.645 33.6562 87.645 33.9844 87.6137 34.2969C87.52 35.0156 87.52 35.5625 87.6137 35.9375C87.7075 36.3125 87.6919 36.6875 87.5669 37.0625C87.4106 37.3438 87.3325 37.5156 87.3325 37.5781C87.3325 37.6406 87.3169 37.7031 87.2856 37.7656C87.2231 37.9219 87.145 38.0625 87.0512 38.1875C86.9575 38.2812 86.8794 38.4219 86.8169 38.6094C86.7856 38.7031 86.7544 38.8281 86.7231 38.9844C86.7231 39.1406 86.7387 39.2812 86.77 39.4062C86.77 39.5625 86.8169 39.6875 86.9106 39.7812C87.0044 39.875 87.0669 39.9688 87.0981 40.0625C87.1294 40.2188 87.1294 40.3906 87.0981 40.5781C87.0981 40.7656 87.0981 40.9688 87.0981 41.1875C87.0981 41.375 87.0981 41.5625 87.0981 41.75C87.1294 41.9375 87.145 42.1094 87.145 42.2656C87.145 42.5156 87.1294 42.8125 87.0981 43.1562C87.0669 43.5 87.02 43.8594 86.9575 44.2344C86.7075 44.5781 86.3481 44.8594 85.8794 45.0781C85.4419 45.2656 84.9575 45.3594 84.4262 45.3594C84.2387 45.3281 84.0356 45.2969 83.8169 45.2656C83.5981 45.2344 83.395 45.2188 83.2075 45.2188C83.145 45.1875 83.0512 45.1875 82.9262 45.2188C82.8325 45.25 82.7544 45.25 82.6919 45.2188C82.5356 45.1562 82.395 44.9844 82.27 44.7031C82.1762 44.4219 82.02 44.25 81.8012 44.1875C81.5825 44.1562 81.3794 44.2188 81.1919 44.375C81.0356 44.5312 80.8794 44.6562 80.7231 44.75C80.6294 44.8125 80.4575 44.8594 80.2075 44.8906C79.9575 44.8906 79.7544 44.875 79.5981 44.8438C79.3794 44.8438 79.145 44.8281 78.895 44.7969C78.645 44.7656 78.3794 44.75 78.0981 44.75C77.6606 44.6875 77.2075 44.7031 76.7387 44.7969C76.3012 44.8594 75.9575 44.8125 75.7075 44.6562C75.5825 44.5 75.4887 44.4219 75.4262 44.4219C75.3637 44.4219 75.3012 44.3906 75.2387 44.3281C75.1137 44.2656 75.02 44.1719 74.9575 44.0469C74.895 43.8906 74.7856 43.7656 74.6294 43.6719C74.5669 43.4844 74.5356 43.2656 74.5356 43.0156C74.5356 42.7656 74.5512 42.5156 74.5825 42.2656C74.6137 41.9531 74.6137 41.6406 74.5825 41.3281C74.5825 41.0156 74.6294 40.75 74.7231 40.5312C74.7856 40.4062 74.8637 40.2969 74.9575 40.2031C75.0825 40.0781 75.145 39.9219 75.145 39.7344C75.145 39.6406 75.1137 39.5469 75.0512 39.4531C74.9887 39.3594 74.9262 39.2812 74.8637 39.2188C74.8012 39 74.7856 38.7656 74.8169 38.5156C74.8481 38.2656 74.9262 38.0625 75.0512 37.9062C75.2075 37.625 75.3794 37.375 75.5669 37.1562C75.7856 36.9375 75.895 36.5781 75.895 36.0781C75.895 35.8906 75.8481 35.7188 75.7544 35.5625C75.6606 35.4062 75.5825 35.25 75.52 35.0938C75.4575 34.9375 75.395 34.8125 75.3325 34.7188C75.3012 34.625 75.27 34.5312 75.2387 34.4375C75.2075 34.1875 75.2075 33.9531 75.2387 33.7344C75.3012 33.5156 75.3325 33.2969 75.3325 33.0781C75.3012 32.5469 75.3012 32.1406 75.3325 31.8594C75.3637 31.5781 75.395 31.2812 75.4262 30.9688C75.4262 30.8438 75.4106 30.7188 75.3794 30.5938C75.3794 30.4688 75.395 30.3438 75.4262 30.2188C75.4887 30.0312 75.5981 29.8594 75.7544 29.7031C75.9106 29.5469 76.0044 29.3281 76.0356 29.0469C76.0356 28.8281 76.02 28.6094 75.9887 28.3906C75.9575 28.1406 75.9106 27.9375 75.8481 27.7812C75.7856 27.625 75.7075 27.4844 75.6137 27.3594C75.52 27.2344 75.4419 27.0781 75.3794 26.8906C75.3169 26.6406 75.3012 26.375 75.3325 26.0938C75.395 25.8125 75.4419 25.5 75.4731 25.1562C75.5044 24.875 75.5044 24.5781 75.4731 24.2656C75.4731 23.9531 75.5044 23.6719 75.5669 23.4219C75.5981 23.2969 75.6294 23.1719 75.6606 23.0469C75.7231 22.9219 75.77 22.7969 75.8012 22.6719C75.8012 22.5781 75.7856 22.4844 75.7544 22.3906C75.7544 22.2969 75.77 22.1875 75.8012 22.0625C75.9575 21.375 76.0512 20.7812 76.0825 20.2812C76.145 19.7812 76.3637 19.3125 76.7387 18.875C76.9262 18.8125 77.0981 18.7188 77.2544 18.5938C77.4106 18.4688 77.5669 18.375 77.7231 18.3125C77.8794 18.25 78.0981 18.2188 78.3794 18.2188C78.6606 18.2188 78.9262 18.2031 79.1762 18.1719C79.7387 18.1406 80.2544 18.125 80.7231 18.125C81.2231 18.125 81.7544 18.1406 82.3169 18.1719C82.5356 18.2031 82.7231 18.2188 82.8794 18.2188C83.0669 18.1875 83.2231 18.1875 83.3481 18.2188C83.4419 18.25 83.52 18.3125 83.5825 18.4062C83.6762 18.5 83.7856 18.5781 83.9106 18.6406C84.4106 18.7344 84.6762 18.7812 84.7075 18.7812C84.8637 18.7812 84.9731 18.75 85.0356 18.6875C85.0981 18.5938 85.2075 18.5312 85.3637 18.5C85.6137 18.4375 85.9262 18.4375 86.3012 18.5C86.7075 18.5625 87.0356 18.6719 87.2856 18.8281C87.3794 18.8906 87.4731 18.9844 87.5669 19.1094C87.6919 19.2344 87.8012 19.3594 87.895 19.4844C88.2387 19.7656 88.52 20.0938 88.7387 20.4688C88.9575 20.8438 89.1919 21.25 89.4419 21.6875C89.6919 22.1562 89.9262 22.5312 90.145 22.8125C90.395 23.0625 90.5981 23.3438 90.7544 23.6562C90.8169 23.8125 90.8794 23.9531 90.9419 24.0781C91.0044 24.2031 91.0825 24.3281 91.1762 24.4531C91.2387 24.6094 91.3012 24.7656 91.3637 24.9219C91.4575 25.0469 91.5356 25.1719 91.5981 25.2969C91.6919 25.4531 91.8012 25.6094 91.9262 25.7656C92.0512 25.8906 92.1919 26.0312 92.3481 26.1875C92.4106 26.2812 92.4575 26.375 92.4887 26.4688C92.52 26.5312 92.5669 26.6094 92.6294 26.7031C92.7231 26.8594 92.8169 27 92.9106 27.125C93.0044 27.25 93.0981 27.3906 93.1919 27.5469C93.1919 27.8906 93.1919 28.1875 93.1919 28.4375C93.1919 28.6562 93.2544 28.875 93.3794 29.0938C93.5356 29.375 93.7856 29.5781 94.1294 29.7031C94.4731 29.7969 94.77 29.9688 95.02 30.2188C95.02 30.375 95.0825 30.5156 95.2075 30.6406C95.3325 30.7344 95.4106 30.8906 95.4419 31.1094C95.4419 31.5781 95.4887 31.8281 95.5825 31.8594C95.6762 31.8906 95.7856 31.9375 95.9106 32C96.1606 32.2188 96.3481 32.4531 96.4731 32.7031C96.6294 32.9219 96.8169 33.1562 97.0356 33.4062C97.1606 32.9062 97.2075 32.4062 97.1762 31.9062C97.1762 31.375 97.1919 30.8125 97.2231 30.2188C97.2231 30 97.2075 29.7656 97.1762 29.5156C97.145 29.2344 97.1606 28.9688 97.2231 28.7188C97.2856 28.4688 97.4262 28.2344 97.645 28.0156C97.895 27.7656 98.0044 27.4688 97.9731 27.125C97.9731 26.9688 97.9262 26.8594 97.8325 26.7969C97.77 26.7031 97.7075 26.5781 97.645 26.4219C97.4887 26.1719 97.3637 25.9062 97.27 25.625C97.2075 25.3125 97.2075 24.9531 97.27 24.5469C97.3012 24.2031 97.3481 23.8594 97.4106 23.5156C97.4731 23.1406 97.52 22.7656 97.5512 22.3906C97.6137 22.0469 97.6294 21.7188 97.5981 21.4062C97.5981 21.0625 97.7075 20.7344 97.9262 20.4219C98.3012 20.1719 98.52 20.0156 98.5825 19.9531C98.645 19.8594 98.7075 19.7969 98.77 19.7656C98.9262 19.7031 99.1294 19.6719 99.3794 19.6719C99.6606 19.6719 99.8794 19.6875 100.036 19.7188C100.598 19.7188 101.161 19.75 101.723 19.8125C102.286 19.875 102.801 19.9219 103.27 19.9531C103.676 19.9531 103.926 20 104.02 20.0938C104.114 20.1562 104.223 20.2188 104.348 20.2812C104.629 20.3125 104.895 20.3594 105.145 20.4219C105.426 20.4844 105.707 20.5 105.989 20.4688C106.301 20.4062 106.567 20.3125 106.786 20.1875C107.036 20.0625 107.286 19.9844 107.536 19.9531C107.629 19.9531 107.707 19.9688 107.77 20C107.864 20.0312 107.957 20.0469 108.051 20.0469C108.239 20.0469 108.426 20.0312 108.614 20C108.801 19.9688 108.973 19.9844 109.129 20.0469C109.098 20.3594 109.114 20.5469 109.176 20.6094C109.27 20.6719 109.332 20.75 109.364 20.8438C109.176 21.4062 109.082 21.8281 109.082 22.1094C109.114 22.3594 109.129 22.625 109.129 22.9062C109.098 23.5312 109.098 24.1719 109.129 24.8281C109.161 25.4531 109.161 26.0781 109.129 26.7031C109.067 27.4844 109.004 28.2812 108.942 29.0938C108.911 29.875 108.911 30.625 108.942 31.3438C108.942 31.6562 108.957 32.0469 108.989 32.5156C109.02 32.9844 108.989 33.3438 108.895 33.5938C108.832 33.75 108.723 33.8906 108.567 34.0156C108.442 34.1094 108.348 34.2344 108.286 34.3906C108.223 34.5156 108.161 34.6875 108.098 34.9062C108.067 35.125 108.051 35.3281 108.051 35.5156C108.082 35.7031 108.161 35.875 108.286 36.0312C108.411 36.1875 108.504 36.3594 108.567 36.5469C108.629 36.7031 108.661 36.9219 108.661 37.2031C108.661 37.4844 108.645 37.75 108.614 38C108.582 38.4062 108.567 38.7656 108.567 39.0781C108.567 39.3906 108.551 39.7344 108.52 40.1094C108.52 40.2656 108.536 40.4219 108.567 40.5781C108.629 40.7031 108.645 40.8125 108.614 40.9062C108.582 41.0625 108.489 41.2031 108.332 41.3281C108.207 41.4219 108.129 41.5469 108.098 41.7031C108.067 41.8906 108.098 42.0781 108.192 42.2656C108.286 42.4219 108.348 42.6094 108.379 42.8281C108.379 42.9531 108.364 43.0781 108.332 43.2031C108.301 43.3281 108.286 43.4531 108.286 43.5781C108.286 43.6719 108.286 43.7812 108.286 43.9062C108.286 44 108.254 44.0781 108.192 44.1406C108.161 44.2969 108.067 44.4688 107.911 44.6562C107.786 44.8125 107.692 44.9688 107.629 45.125C107.536 45.2812 107.442 45.4531 107.348 45.6406C107.254 45.8281 107.161 45.9844 107.067 46.1094C107.004 46.2031 106.864 46.3438 106.645 46.5312C106.426 46.7188 106.239 46.8125 106.082 46.8125ZM78.0044 20.4219C77.8169 20.6719 77.6606 21.0625 77.5356 21.5938C77.4419 22.0938 77.4887 22.5156 77.6762 22.8594C78.0512 22.7969 78.2856 22.6094 78.3794 22.2969C78.5044 21.9844 78.6762 21.7188 78.895 21.5C79.1137 21.375 79.395 21.2812 79.7387 21.2188C79.9887 20.8125 79.9887 20.5 79.7387 20.2812C79.4887 20.0938 79.1919 20.0312 78.8481 20.0938C78.5044 20.1562 78.2231 20.2656 78.0044 20.4219ZM78.2856 38.375C78.2231 38.25 78.1919 38.1094 78.1919 37.9531C78.2231 37.7969 78.2387 37.6562 78.2387 37.5312C78.2387 37.4062 78.2231 37.2969 78.1919 37.2031C78.1606 37.0781 78.0512 37 77.8637 36.9688C77.8325 37.0312 77.7544 37.2031 77.6294 37.4844C77.5356 37.7344 77.4731 37.8906 77.4419 37.9531C77.3794 38.2031 77.4575 38.3594 77.6762 38.4219C77.895 38.4531 78.0981 38.4375 78.2856 38.375ZM77.395 24.2188C77.395 24.4375 77.395 24.6875 77.395 24.9688C77.395 25.25 77.5044 25.4219 77.7231 25.4844C77.8794 25.3281 78.0044 25.1094 78.0981 24.8281C78.1919 24.5156 78.145 24.2812 77.9575 24.125C77.6762 24.0625 77.4887 24.0938 77.395 24.2188ZM78.4731 43.0625C78.6606 43.0312 78.7856 42.9688 78.8481 42.875C78.9106 42.75 78.9106 42.625 78.8481 42.5C78.8169 42.375 78.7387 42.2812 78.6137 42.2188C78.4887 42.1562 78.3325 42.1719 78.145 42.2656C77.9887 42.0156 77.8481 41.7344 77.7231 41.4219C77.5981 41.1094 77.5669 40.7656 77.6294 40.3906C77.3481 40.4844 77.1294 40.7656 76.9731 41.2344C76.8481 41.7031 76.8169 42.1562 76.8794 42.5938C76.9419 42.8438 77.0512 42.9688 77.2075 42.9688C77.3637 42.9375 77.5356 42.9375 77.7231 42.9688C77.8794 42.9688 78.02 43 78.145 43.0625C78.27 43.0938 78.3794 43.0938 78.4731 43.0625ZM103.598 21.875C103.504 21.9375 103.442 22.0625 103.411 22.25C103.379 22.4375 103.426 22.5625 103.551 22.625C103.707 22.75 103.879 22.75 104.067 22.625C104.254 22.5 104.27 22.3281 104.114 22.1094C104.02 22.0781 103.926 22.0469 103.832 22.0156C103.77 21.9531 103.692 21.9062 103.598 21.875ZM99.7075 22.3906C99.7075 22.5781 99.7075 22.7969 99.7075 23.0469C99.7075 23.2969 99.7075 23.5469 99.7075 23.7969C99.7075 24.0156 99.7387 24.2188 99.8012 24.4062C99.8637 24.5625 99.9731 24.6562 100.129 24.6875C100.348 24.4688 100.457 24.1875 100.457 23.8438C100.489 23.4688 100.536 23.1562 100.598 22.9062C100.817 22.75 101.067 22.6562 101.348 22.625C101.661 22.5625 101.973 22.5156 102.286 22.4844C102.348 22.4219 102.379 22.3281 102.379 22.2031C102.379 22.0469 102.348 21.9375 102.286 21.875C101.942 21.8125 101.582 21.7969 101.207 21.8281C100.864 21.8281 100.473 21.7812 100.036 21.6875C99.8169 21.7188 99.7075 21.7969 99.7075 21.9219C99.7075 22.0469 99.7075 22.2031 99.7075 22.3906ZM102.942 44.5625C102.973 44.4375 102.973 44.3125 102.942 44.1875C102.942 44.0312 102.911 43.9219 102.848 43.8594C102.692 43.7031 102.504 43.6406 102.286 43.6719C102.067 43.6719 101.848 43.6406 101.629 43.5781C101.348 43.5156 101.129 43.4062 100.973 43.25C100.848 43.0938 100.739 42.9219 100.645 42.7344C100.551 42.5469 100.442 42.3594 100.317 42.1719C100.192 41.9531 100.02 41.7812 99.8012 41.6562C99.7387 41.6562 99.645 41.6562 99.52 41.6562C99.4262 41.625 99.3481 41.5781 99.2856 41.5156C99.0356 41.7031 98.9887 41.9219 99.145 42.1719C99.3012 42.3906 99.4106 42.6094 99.4731 42.8281C99.5669 43.1094 99.6137 43.3906 99.6137 43.6719C99.645 43.9219 99.7075 44.1406 99.8012 44.3281C100.082 44.5781 100.426 44.7031 100.832 44.7031C101.27 44.7031 101.661 44.7344 102.004 44.7969C102.161 44.7344 102.317 44.7031 102.473 44.7031C102.661 44.6719 102.817 44.625 102.942 44.5625ZM105.332 44.8438C105.426 44.5625 105.411 44.375 105.286 44.2812C104.848 44.3125 104.567 44.3281 104.442 44.3281C104.348 44.2969 104.301 44.3281 104.301 44.4219C104.301 44.6719 104.426 44.8438 104.676 44.9375C104.957 45.0312 105.176 45 105.332 44.8438ZM74.02 21.2656C74.27 21.1406 74.4887 21.1406 74.6762 21.2656C74.895 21.3594 75.0356 21.4844 75.0981 21.6406C75.0356 22.0469 74.9731 22.4531 74.9106 22.8594C74.8794 23.2344 74.8637 23.6406 74.8637 24.0781C74.8637 24.4531 74.7544 24.7344 74.5356 24.9219C74.3794 24.9844 74.2387 24.9844 74.1137 24.9219C74.02 24.8281 73.9419 24.75 73.8794 24.6875C73.8169 24.2812 73.8325 23.8281 73.9262 23.3281C74.0512 22.8281 74.0356 22.3594 73.8794 21.9219C73.9106 21.7969 73.9262 21.6719 73.9262 21.5469C73.9262 21.4219 73.9575 21.3281 74.02 21.2656ZM95.4887 24.5938C95.6137 24.5312 95.6919 24.4531 95.7231 24.3594C95.7856 24.2344 95.895 24.1719 96.0512 24.1719C96.4262 24.6094 96.52 25.125 96.3325 25.7188C95.8325 25.7812 95.5512 25.6875 95.4887 25.4375C95.4575 25.1562 95.4575 24.875 95.4887 24.5938ZM108.848 44C108.973 43.9375 109.082 43.9375 109.176 44C109.301 44.0625 109.395 44.125 109.457 44.1875C109.301 44.5312 109.192 44.7344 109.129 44.7969C109.067 44.8594 108.957 44.8594 108.801 44.7969C108.739 44.7031 108.707 44.5781 108.707 44.4219C108.739 44.2344 108.786 44.0938 108.848 44ZM88.3637 43.7656C88.5825 43.6719 88.6762 43.7969 88.645 44.1406C88.6137 44.4531 88.6137 44.7188 88.645 44.9375C88.6762 45.3125 88.7387 45.6406 88.8325 45.9219C88.9262 46.2031 88.895 46.5 88.7387 46.8125C88.5512 47 88.27 47.0625 87.895 47C87.52 46.9062 87.1762 46.875 86.8637 46.9062C86.4887 47.1562 86.1606 47.2969 85.8794 47.3281C85.5981 47.3594 85.3012 47.4062 84.9887 47.4688C84.4575 47.5312 83.9106 47.4844 83.3481 47.3281C82.8169 47.1719 82.2856 47.0156 81.7544 46.8594C81.6919 46.7031 81.7231 46.6094 81.8481 46.5781C82.0044 46.5469 82.1137 46.5 82.1762 46.4375C82.52 46.4375 82.8637 46.4062 83.2075 46.3438C83.5825 46.25 83.9731 46.2188 84.3794 46.25C84.5669 46.25 84.7387 46.2812 84.895 46.3438C85.0825 46.375 85.27 46.3906 85.4575 46.3906C85.6762 46.3906 85.8794 46.375 86.0669 46.3438C86.2856 46.3125 86.4887 46.3125 86.6762 46.3438C87.1137 46.5 87.4262 46.5312 87.6137 46.4375C87.8012 46.3125 87.9262 46.1406 87.9887 45.9219C88.02 45.8281 88.02 45.7344 87.9887 45.6406C87.9887 45.5469 87.9887 45.4531 87.9887 45.3594C88.02 45.0469 88.0669 44.75 88.1294 44.4688C88.2231 44.1875 88.3012 43.9531 88.3637 43.7656ZM108.426 45.4531C108.582 45.4531 108.692 45.4844 108.754 45.5469C108.817 45.6094 108.879 45.6719 108.942 45.7344C108.879 45.9844 108.832 46.2656 108.801 46.5781C108.77 46.8906 108.754 47.2188 108.754 47.5625C108.661 47.9688 108.536 48.2344 108.379 48.3594C108.223 48.4531 108.082 48.5 107.957 48.5C107.77 48.5 107.629 48.4375 107.536 48.3125C107.473 48.1562 107.317 48.1094 107.067 48.1719C106.786 48.5156 106.395 48.6406 105.895 48.5469C105.645 48.2031 105.676 47.9375 105.989 47.75C106.332 47.5625 106.661 47.4531 106.973 47.4219C107.067 47.3906 107.207 47.2969 107.395 47.1406C107.614 46.9531 107.754 46.8125 107.817 46.7188C107.973 46.5 108.051 46.2969 108.051 46.1094C108.082 45.9219 108.207 45.7031 108.426 45.4531ZM75.3794 45.5469C75.6294 45.5781 75.8794 45.5781 76.1294 45.5469C76.4106 45.5156 76.6294 45.5938 76.7856 45.7812C76.3169 46.0625 75.895 46.2656 75.52 46.3906C75.1762 46.4844 74.7856 46.4531 74.3481 46.2969C74.2231 46.1406 74.1294 45.9688 74.0669 45.7812C74.0044 45.5625 74.0512 45.3906 74.2075 45.2656C74.395 45.2656 74.5825 45.3125 74.77 45.4062C74.9575 45.4688 75.1606 45.5156 75.3794 45.5469ZM104.02 47.75C104.176 47.7812 104.348 47.875 104.536 48.0312C104.754 48.1875 104.832 48.3438 104.77 48.5C104.614 48.6875 104.395 48.7812 104.114 48.7812C103.832 48.75 103.536 48.7344 103.223 48.7344C102.973 48.7031 102.739 48.7188 102.52 48.7812C102.332 48.8125 102.129 48.7969 101.911 48.7344C101.723 48.6719 101.614 48.5625 101.582 48.4062C101.582 48.25 101.661 48.1094 101.817 47.9844C101.973 47.9219 102.161 47.9062 102.379 47.9375C102.598 47.9375 102.832 47.9219 103.082 47.8906C103.239 47.8906 103.395 47.8594 103.551 47.7969C103.707 47.7344 103.864 47.7188 104.02 47.75ZM123.327 17.7031C123.077 17.6406 122.921 17.5625 122.858 17.4688C122.889 17.2188 122.983 17.0625 123.139 17C123.327 16.9062 123.499 16.8281 123.655 16.7656C124.249 16.8281 124.733 16.7344 125.108 16.4844C125.514 16.2344 125.967 16.0625 126.467 15.9688C126.717 15.9062 126.952 15.8906 127.171 15.9219C127.421 15.9219 127.686 15.8906 127.967 15.8281C128.467 15.7344 128.827 15.7969 129.046 16.0156C128.889 16.3906 128.624 16.6875 128.249 16.9062C127.905 17.0938 127.499 17.1094 127.03 16.9531C126.655 16.7969 126.342 16.7344 126.092 16.7656C125.842 16.7656 125.655 16.7812 125.53 16.8125C125.374 16.8438 125.202 16.8906 125.014 16.9531C124.858 17.0156 124.702 17.0781 124.546 17.1406C124.296 17.2344 124.092 17.3438 123.936 17.4688C123.78 17.5625 123.577 17.6406 123.327 17.7031ZM139.452 47.2812C139.264 47.3438 139.077 47.4062 138.889 47.4688C138.702 47.5312 138.514 47.5938 138.327 47.6562C138.108 47.7188 137.889 47.7812 137.671 47.8438C137.483 47.875 137.296 47.9219 137.108 47.9844C136.952 48.0469 136.796 48.1094 136.639 48.1719C136.483 48.2344 136.311 48.2812 136.124 48.3125C136.03 48.3125 135.936 48.3125 135.842 48.3125C135.78 48.2812 135.702 48.2656 135.608 48.2656C135.421 48.2969 135.233 48.3281 135.046 48.3594C134.858 48.3906 134.671 48.3906 134.483 48.3594C134.358 48.3594 134.217 48.3281 134.061 48.2656C133.936 48.1719 133.796 48.125 133.639 48.125C133.483 48.125 133.342 48.1719 133.217 48.2656C133.092 48.3594 132.952 48.4375 132.796 48.5C132.327 48.4375 131.827 48.3906 131.296 48.3594C130.796 48.2969 130.249 48.2656 129.655 48.2656C129.467 48.2656 129.296 48.2656 129.139 48.2656C129.014 48.2656 128.905 48.1875 128.811 48.0312C128.655 47.9688 128.483 47.9844 128.296 48.0781C128.108 48.1406 127.921 48.1719 127.733 48.1719C127.639 48.1719 127.499 48.1719 127.311 48.1719C127.155 48.1406 126.999 48.1094 126.842 48.0781C126.655 48.0469 126.467 48.0469 126.28 48.0781C126.092 48.0781 125.889 48.0625 125.671 48.0312C125.108 47.875 124.514 47.7031 123.889 47.5156C123.296 47.3281 122.733 47.1094 122.202 46.8594C121.983 46.7656 121.78 46.6719 121.592 46.5781C121.436 46.4844 121.264 46.3906 121.077 46.2969C120.889 46.1719 120.717 46.0625 120.561 45.9688C120.405 45.8438 120.202 45.7344 119.952 45.6406C119.921 45.3906 119.921 45.1406 119.952 44.8906C119.983 44.6406 119.999 44.3906 119.999 44.1406C119.624 44.0781 119.249 44.0156 118.874 43.9531C118.499 43.8906 118.124 43.7812 117.749 43.625C117.624 43.375 117.467 43.1406 117.28 42.9219C117.092 42.6719 116.967 42.3906 116.905 42.0781C116.874 41.8594 116.858 41.6406 116.858 41.4219C116.889 41.1719 116.842 40.9688 116.717 40.8125C116.592 40.6875 116.452 40.6094 116.296 40.5781C116.171 40.5469 116.03 40.4531 115.874 40.2969C115.717 40.0469 115.592 39.7188 115.499 39.3125C115.405 38.9062 115.327 38.5312 115.264 38.1875C115.202 37.8438 115.124 37.5156 115.03 37.2031C114.967 36.8594 114.967 36.5156 115.03 36.1719C114.842 35.5469 114.749 34.8594 114.749 34.1094C114.749 33.3281 114.764 32.5312 114.796 31.7188C114.796 31.5938 114.796 31.4688 114.796 31.3438C114.827 31.2188 114.842 31.0781 114.842 30.9219C114.874 30.7656 114.905 30.6406 114.936 30.5469C114.999 30.4219 115.014 30.2969 114.983 30.1719C114.983 30.0781 114.952 30 114.889 29.9375C114.858 29.8438 114.858 29.75 114.889 29.6562C114.889 29.5 114.921 29.375 114.983 29.2812C115.077 29.1562 115.124 29.0156 115.124 28.8594C115.217 28.7656 115.327 28.7031 115.452 28.6719C115.577 28.6094 115.717 28.5469 115.874 28.4844C115.999 28.2969 116.077 28.0781 116.108 27.8281C116.171 27.5781 116.217 27.3438 116.249 27.125C116.311 26.875 116.374 26.6562 116.436 26.4688C116.499 26.25 116.608 26.0781 116.764 25.9531C116.858 25.8906 116.952 25.8438 117.046 25.8125C117.171 25.7812 117.28 25.7344 117.374 25.6719C117.53 25.5469 117.655 25.4219 117.749 25.2969C117.842 25.1406 117.967 24.9844 118.124 24.8281C118.155 24.6406 118.124 24.4375 118.03 24.2188C117.967 23.9688 117.967 23.75 118.03 23.5625C118.03 23.5 118.077 23.3594 118.171 23.1406C118.296 22.8906 118.389 22.7344 118.452 22.6719C118.514 22.5781 118.608 22.5 118.733 22.4375C118.858 22.3438 118.967 22.25 119.061 22.1562C119.28 21.9688 119.499 21.7812 119.717 21.5938C119.936 21.375 120.171 21.1562 120.421 20.9375C120.577 20.8125 120.733 20.7031 120.889 20.6094C121.077 20.4844 121.249 20.375 121.405 20.2812C121.561 20.1562 121.717 20.0469 121.874 19.9531C122.03 19.8281 122.202 19.7188 122.389 19.625C122.483 19.5625 122.577 19.5312 122.671 19.5312C122.796 19.5 122.921 19.4531 123.046 19.3906C123.108 19.3281 123.186 19.2656 123.28 19.2031C123.374 19.1406 123.452 19.0938 123.514 19.0625C123.702 18.9375 123.921 18.8438 124.171 18.7812C124.421 18.7188 124.671 18.6562 124.921 18.5938C125.296 18.4688 125.671 18.3594 126.046 18.2656C126.421 18.1719 126.827 18.2031 127.264 18.3594C127.514 18.3281 127.733 18.3281 127.921 18.3594C128.139 18.3906 128.374 18.375 128.624 18.3125C128.999 18.25 129.342 18.1094 129.655 17.8906C129.967 17.6406 130.311 17.4844 130.686 17.4219C131.03 17.3281 131.405 17.3125 131.811 17.375C132.217 17.4062 132.592 17.4219 132.936 17.4219C133.155 17.4219 133.405 17.4219 133.686 17.4219C133.999 17.4219 134.28 17.4531 134.53 17.5156C134.686 17.5469 134.827 17.5938 134.952 17.6562C135.077 17.6875 135.233 17.7344 135.421 17.7969C135.514 17.7969 135.608 17.8125 135.702 17.8438C135.827 17.875 135.921 17.9062 135.983 17.9375C136.108 17.9375 136.202 17.9219 136.264 17.8906C136.358 17.8594 136.452 17.8438 136.546 17.8438C136.639 17.8438 136.733 17.875 136.827 17.9375C136.921 18 137.014 18.0469 137.108 18.0781C137.827 18.2031 138.483 18.4062 139.077 18.6875C139.702 18.9375 140.311 19.1875 140.905 19.4375C140.967 19.6875 141.061 19.8906 141.186 20.0469C141.311 20.2031 141.452 20.3594 141.608 20.5156C141.921 20.4844 142.155 20.5156 142.311 20.6094C142.499 20.6719 142.702 20.7656 142.921 20.8906C143.014 20.9531 143.108 21 143.202 21.0312C143.327 21.0625 143.421 21.1094 143.483 21.1719C143.796 21.3281 144.061 21.5469 144.28 21.8281C144.53 22.1094 144.78 22.3594 145.03 22.5781C145.124 22.6719 145.233 22.7656 145.358 22.8594C145.483 22.9219 145.577 23.0312 145.639 23.1875C145.702 23.3438 145.702 23.6406 145.639 24.0781C145.577 24.5156 145.499 24.8125 145.405 24.9688C145.342 25.125 145.217 25.2812 145.03 25.4375C144.874 25.5625 144.702 25.6875 144.514 25.8125C144.327 25.9688 144.108 26.1562 143.858 26.375C143.639 26.5625 143.405 26.6875 143.155 26.75C142.936 26.8125 142.733 26.8281 142.546 26.7969C142.389 26.7656 142.217 26.7344 142.03 26.7031C141.78 26.5469 141.546 26.375 141.327 26.1875C141.139 25.9688 140.936 25.7656 140.717 25.5781C140.342 25.5156 139.999 25.4062 139.686 25.25C139.405 25.0938 139.108 24.9375 138.796 24.7812C138.296 24.5625 137.811 24.3438 137.342 24.125C136.874 23.9062 136.342 23.7656 135.749 23.7031C135.28 23.6406 134.796 23.5938 134.296 23.5625C133.827 23.5312 133.358 23.5312 132.889 23.5625C132.827 23.5625 132.733 23.5625 132.608 23.5625C132.483 23.5625 132.389 23.5469 132.327 23.5156C132.264 23.4844 132.171 23.4219 132.046 23.3281C131.952 23.2344 131.858 23.1875 131.764 23.1875C131.264 23.4062 130.889 23.5312 130.639 23.5625C130.421 23.5625 130.186 23.5938 129.936 23.6562C129.717 23.7188 129.514 23.7969 129.327 23.8906C129.139 23.9531 128.952 24.0156 128.764 24.0781C128.671 24.1406 128.53 24.2344 128.342 24.3594C128.186 24.4844 128.061 24.5781 127.967 24.6406C127.874 24.7969 127.78 24.9688 127.686 25.1562C127.624 25.3438 127.546 25.5312 127.452 25.7188C127.327 25.9688 127.249 26.1562 127.217 26.2812C127.155 26.4375 127.092 26.5938 127.03 26.75C126.967 26.9062 126.921 27.1094 126.889 27.3594C126.483 27.5156 126.249 27.8125 126.186 28.25C126.186 28.375 126.202 28.4844 126.233 28.5781C126.296 28.6719 126.342 28.7812 126.374 28.9062C126.53 29.5625 126.53 30.2656 126.374 31.0156C126.217 31.7344 126.171 32.4531 126.233 33.1719C125.827 33.4219 125.577 33.8906 125.483 34.5781C125.577 34.7656 125.702 34.9375 125.858 35.0938C126.046 35.25 126.186 35.4219 126.28 35.6094C126.249 36.5781 126.264 37.5312 126.327 38.4688C126.421 39.4062 126.655 40.1875 127.03 40.8125C127.28 40.875 127.467 41 127.592 41.1875C127.749 41.3438 127.936 41.5 128.155 41.6562C128.311 41.75 128.467 41.8281 128.624 41.8906C128.78 41.9531 128.936 42.0156 129.092 42.0781C129.342 42.2344 129.608 42.375 129.889 42.5C130.171 42.625 130.467 42.7188 130.78 42.7812C131.061 42.8438 131.358 42.9062 131.671 42.9688C131.983 43 132.311 43.0469 132.655 43.1094C133.186 43.1719 133.671 43.2188 134.108 43.25C134.577 43.25 135.061 43.2188 135.561 43.1562C135.655 43.125 135.78 43.1094 135.936 43.1094C136.092 43.1094 136.217 43.0938 136.311 43.0625C136.686 42.875 136.936 42.8438 137.061 42.9688C137.186 43.0625 137.327 43.1094 137.483 43.1094C137.639 43.1094 137.764 43.0156 137.858 42.8281C137.983 42.6094 138.108 42.4375 138.233 42.3125C138.671 42.0938 139.155 41.8906 139.686 41.7031C140.217 41.5156 140.749 41.3281 141.28 41.1406C141.499 41.0156 141.717 40.9219 141.936 40.8594C142.186 40.7656 142.405 40.75 142.592 40.8125C142.936 41.0938 143.155 41.2344 143.249 41.2344C143.374 41.2344 143.467 41.2656 143.53 41.3281C143.842 41.6719 144.03 41.9219 144.092 42.0781C144.155 42.2031 144.217 42.3906 144.28 42.6406C144.311 42.7656 144.342 42.8906 144.374 43.0156C144.405 43.1094 144.421 43.1875 144.421 43.25C144.421 43.6562 144.28 43.9531 143.999 44.1406C143.749 44.3281 143.546 44.5469 143.389 44.7969C143.139 44.9844 142.889 45.1719 142.639 45.3594C142.421 45.5469 142.139 45.7188 141.796 45.875C141.639 46.0312 141.452 46.1562 141.233 46.25C141.046 46.3125 140.842 46.4219 140.624 46.5781C140.436 46.6719 140.249 46.7969 140.061 46.9531C139.874 47.1094 139.671 47.2188 139.452 47.2812ZM140.577 42.7344C140.171 42.8906 139.78 43.0625 139.405 43.25C139.061 43.4375 138.889 43.7188 138.889 44.0938C138.952 44.125 139.014 44.1719 139.077 44.2344C139.139 44.2969 139.233 44.3281 139.358 44.3281C139.452 44.2969 139.546 44.2188 139.639 44.0938C139.764 43.9688 139.889 43.8906 140.014 43.8594C140.171 43.7969 140.311 43.7812 140.436 43.8125C140.561 43.8125 140.686 43.7812 140.811 43.7188C140.967 43.6562 141.061 43.5938 141.092 43.5312C141.155 43.4375 141.217 43.3594 141.28 43.2969C141.342 43.1094 141.342 42.9688 141.28 42.875C141.249 42.75 141.202 42.6406 141.139 42.5469C141.014 42.5469 140.921 42.5625 140.858 42.5938C140.796 42.625 140.702 42.6719 140.577 42.7344ZM126.514 20.1875C126.421 20.25 126.358 20.3281 126.327 20.4219C126.296 20.4844 126.249 20.5469 126.186 20.6094C126.186 20.9531 126.342 21.125 126.655 21.125C126.78 20.9688 126.936 20.8281 127.124 20.7031C127.311 20.5781 127.327 20.4062 127.171 20.1875C127.046 20.1562 126.936 20.1562 126.842 20.1875C126.78 20.2188 126.671 20.2188 126.514 20.1875ZM118.639 28.2969C118.827 28.1406 118.999 27.9375 119.155 27.6875C119.311 27.4375 119.358 27.1406 119.296 26.7969C119.046 26.8594 118.827 27.0781 118.639 27.4531C118.483 27.7969 118.483 28.0781 118.639 28.2969ZM122.436 23.1875C122.561 22.9688 122.717 22.8281 122.905 22.7656C123.092 22.7031 123.296 22.625 123.514 22.5312C123.764 22.4062 123.999 22.2656 124.217 22.1094C124.436 21.9531 124.624 21.75 124.78 21.5C124.561 21.1875 124.421 21.0156 124.358 20.9844C124.327 20.9219 124.264 20.875 124.171 20.8438C123.608 21.125 123.061 21.4062 122.53 21.6875C121.999 21.9688 121.514 22.2812 121.077 22.625C120.921 22.7812 120.874 22.9688 120.936 23.1875C120.999 23.4062 121.014 23.5938 120.983 23.75C120.983 23.8438 120.952 23.9375 120.889 24.0312C120.827 24.0938 120.764 24.1719 120.702 24.2656C120.639 24.4219 120.577 24.5781 120.514 24.7344C120.452 24.8594 120.405 25.0312 120.374 25.25C120.624 25.2812 120.811 25.2656 120.936 25.2031C121.061 25.1406 121.171 25.0625 121.264 24.9688C121.577 24.5312 121.78 24.25 121.874 24.125C121.999 24 122.139 23.8125 122.296 23.5625L122.436 23.1875ZM125.249 45.875C125.405 45.7812 125.483 45.6406 125.483 45.4531C125.483 45.2656 125.436 45.0938 125.342 44.9375C125.186 44.875 125.046 44.8438 124.921 44.8438C124.827 44.8125 124.717 44.7656 124.592 44.7031C124.124 44.4531 123.78 44.3281 123.561 44.3281C123.374 44.3281 123.155 44.2812 122.905 44.1875C122.592 44.125 122.436 44.1719 122.436 44.3281C122.467 44.4531 122.452 44.5625 122.389 44.6562C122.546 45.0938 122.717 45.375 122.905 45.5C123.124 45.625 123.374 45.7188 123.655 45.7812C123.936 45.8125 124.217 45.8281 124.499 45.8281C124.811 45.8281 125.061 45.8438 125.249 45.875ZM121.358 18.875C121.202 18.9375 121.077 18.9219 120.983 18.8281C120.889 18.7344 120.811 18.6406 120.749 18.5469C120.717 18.2031 120.827 17.9688 121.077 17.8438C121.358 17.7188 121.592 17.75 121.78 17.9375C121.967 18.0938 121.952 18.25 121.733 18.4062C121.546 18.5625 121.421 18.7188 121.358 18.875ZM116.296 23.7031C116.108 23.7656 115.936 23.75 115.78 23.6562C115.655 23.0625 115.733 22.5625 116.014 22.1562C116.327 21.7188 116.608 21.2812 116.858 20.8438C117.264 20.1875 117.624 19.6719 117.936 19.2969C118.592 19.2344 119.014 19.125 119.202 18.9688C119.389 18.7812 119.655 18.6875 119.999 18.6875C120.092 18.75 120.155 18.8438 120.186 18.9688C120.249 19.0938 120.311 19.2031 120.374 19.2969C120.217 19.5469 120.014 19.7344 119.764 19.8594C119.514 19.9844 119.264 20.1406 119.014 20.3281C118.639 20.6406 118.358 20.8594 118.171 20.9844C117.983 21.0781 117.842 21.1875 117.749 21.3125C117.686 21.375 117.624 21.4688 117.561 21.5938C117.53 21.6875 117.483 21.7969 117.421 21.9219C117.358 22.0156 117.28 22.1094 117.186 22.2031C117.124 22.2969 117.077 22.3906 117.046 22.4844C116.983 22.6094 116.936 22.75 116.905 22.9062C116.874 23.0625 116.827 23.1875 116.764 23.2812C116.702 23.3438 116.624 23.4219 116.53 23.5156C116.436 23.6094 116.358 23.6719 116.296 23.7031ZM134.014 25.8125C133.764 25.875 133.514 25.8906 133.264 25.8594C133.046 25.8281 132.952 25.6719 132.983 25.3906C132.827 25.3906 132.624 25.4219 132.374 25.4844C132.342 25.5781 132.311 25.6719 132.28 25.7656C132.28 25.8594 132.249 25.9375 132.186 26C131.499 26.0938 130.905 26.3438 130.405 26.75C130.342 26.8125 130.264 26.8906 130.171 26.9844C130.077 27.0469 129.999 27.1094 129.936 27.1719C129.78 27.3281 129.686 27.5312 129.655 27.7812C129.655 28 129.624 28.2344 129.561 28.4844C129.124 28.2969 128.936 28.0156 128.999 27.6406C129.061 27.2656 129.124 26.9062 129.186 26.5625C129.186 26.5 129.249 26.4062 129.374 26.2812C129.499 26.125 129.608 25.9844 129.702 25.8594C129.827 25.7344 129.952 25.6094 130.077 25.4844C130.202 25.3594 130.342 25.2656 130.499 25.2031C130.717 25.1406 130.921 25.1094 131.108 25.1094C131.296 25.1094 131.514 25.1094 131.764 25.1094C132.139 25.1094 132.514 25.0625 132.889 24.9688C133.264 24.875 133.624 24.9531 133.967 25.2031C134.061 25.2969 134.108 25.4062 134.108 25.5312C134.139 25.6562 134.108 25.75 134.014 25.8125ZM143.061 27.9219C143.249 27.9219 143.467 27.8438 143.717 27.6875C143.967 27.5312 144.217 27.4531 144.467 27.4531C144.592 27.6094 144.577 27.7812 144.421 27.9688C144.264 28.1562 144.092 28.2812 143.905 28.3438C143.78 28.4062 143.608 28.4844 143.389 28.5781C143.202 28.6406 143.046 28.6719 142.921 28.6719C142.733 28.6719 142.546 28.625 142.358 28.5312C142.171 28.4375 141.999 28.4062 141.842 28.4375C141.655 28.25 141.436 28.0938 141.186 27.9688C140.967 27.8438 140.749 27.7031 140.53 27.5469C140.53 27.2031 140.702 27.0781 141.046 27.1719C141.389 27.2344 141.639 27.3438 141.796 27.5C142.108 27.5625 142.342 27.6562 142.499 27.7812C142.686 27.9062 142.874 27.9531 143.061 27.9219ZM128.577 29.5625C128.827 29.3438 129.077 29.2969 129.327 29.4219C129.577 29.5156 129.686 29.7031 129.655 29.9844C129.655 30.2031 129.561 30.375 129.374 30.5C129.186 30.5938 128.967 30.625 128.717 30.5938C128.655 30.4688 128.608 30.3125 128.577 30.125C128.546 29.9062 128.546 29.7188 128.577 29.5625ZM120.28 47.1875C120.467 47.2812 120.655 47.3594 120.842 47.4219C121.03 47.4531 121.186 47.5312 121.311 47.6562C121.186 48.0938 121.014 48.25 120.796 48.125C120.608 48 120.452 47.8906 120.327 47.7969C120.077 47.7969 119.874 47.7344 119.717 47.6094C119.592 47.4844 119.467 47.3906 119.342 47.3281C119.28 47.2656 119.186 47.2344 119.061 47.2344C118.967 47.2031 118.889 47.1562 118.827 47.0938C118.639 46.9375 118.467 46.75 118.311 46.5312C118.186 46.3125 117.952 46.1719 117.608 46.1094C117.389 45.7344 117.139 45.3594 116.858 44.9844C116.608 44.5781 116.436 44.1406 116.342 43.6719C116.499 43.5469 116.608 43.5625 116.671 43.7188C116.733 43.8438 116.796 43.9531 116.858 44.0469C117.077 44.2031 117.217 44.3281 117.28 44.4219C117.374 44.4844 117.436 44.5469 117.467 44.6094C117.686 44.6406 117.858 44.7031 117.983 44.7969C118.139 44.8906 118.327 44.9688 118.546 45.0312C118.764 45.1562 118.811 45.3281 118.686 45.5469C118.592 45.7344 118.577 45.9062 118.639 46.0625C118.671 46.1562 118.749 46.25 118.874 46.3438C119.03 46.4062 119.186 46.4844 119.342 46.5781C119.499 46.7344 119.655 46.8125 119.811 46.8125C119.874 46.875 119.952 46.9375 120.046 47C120.139 47.0625 120.217 47.125 120.28 47.1875ZM140.389 48.5938C140.639 48.4688 140.874 48.3438 141.092 48.2188C141.342 48.0938 141.608 48.0938 141.889 48.2188C141.952 48.4375 141.905 48.5938 141.749 48.6875C141.624 48.7812 141.53 48.875 141.467 48.9688C141.374 49.0312 141.264 49.0781 141.139 49.1094C141.014 49.1406 140.905 49.1875 140.811 49.25C140.374 49.4688 139.905 49.7031 139.405 49.9531C138.905 50.1719 138.389 50.2969 137.858 50.3281C137.796 50.3281 137.686 50.3281 137.53 50.3281C137.405 50.3281 137.311 50.2969 137.249 50.2344C137.061 50.1094 136.999 49.9531 137.061 49.7656C137.124 49.5781 137.217 49.4219 137.342 49.2969C137.655 49.0781 137.999 49.0312 138.374 49.1562C138.78 49.25 139.155 49.25 139.499 49.1562C139.624 49.125 139.764 49.0469 139.921 48.9219C140.077 48.7969 140.233 48.6875 140.389 48.5938ZM135.702 50.4688C135.639 50.2812 135.655 50.125 135.749 50C135.874 49.9062 136.014 49.8438 136.171 49.8125C136.358 49.7812 136.514 49.7969 136.639 49.8594C136.764 49.9219 136.811 50.0469 136.78 50.2344C136.749 50.3906 136.592 50.5 136.311 50.5625C136.061 50.6562 135.858 50.625 135.702 50.4688ZM146.577 44.5625C146.639 44.875 146.608 45.125 146.483 45.3125C146.389 45.4688 146.264 45.6562 146.108 45.875C145.952 46 145.796 46.1094 145.639 46.2031C145.483 46.2656 145.374 46.375 145.311 46.5312C145.061 46.6562 144.764 46.8906 144.421 47.2344C144.108 47.5781 143.78 47.8125 143.436 47.9375C143.28 48 143.092 48.0156 142.874 47.9844C142.655 47.9531 142.483 47.8906 142.358 47.7969C142.452 47.4531 142.624 47.1875 142.874 47C143.155 46.8125 143.421 46.625 143.671 46.4375C143.952 46.25 144.202 46.0312 144.421 45.7812C144.639 45.5312 144.905 45.3281 145.217 45.1719C145.28 45.0156 145.342 44.8906 145.405 44.7969C145.499 44.6719 145.561 44.5312 145.592 44.375C145.592 44.2188 145.546 44.0625 145.452 43.9062C145.389 43.75 145.405 43.5938 145.499 43.4375C145.624 43.5 145.717 43.5 145.78 43.4375C145.842 43.375 145.952 43.375 146.108 43.4375C146.139 43.625 146.217 43.8125 146.342 44C146.467 44.1875 146.546 44.375 146.577 44.5625ZM171.321 20.8906C171.165 21.0469 170.915 21.1562 170.571 21.2188C170.227 21.25 170.024 21.1406 169.962 20.8906C169.962 20.6406 170.04 20.4531 170.196 20.3281C170.384 20.2031 170.54 20.0625 170.665 19.9062C170.759 19.7812 170.821 19.6562 170.852 19.5312C170.915 19.4062 170.993 19.2656 171.087 19.1094C171.149 18.9531 171.227 18.8438 171.321 18.7812C171.446 18.7188 171.556 18.6562 171.649 18.5938C171.899 18.4062 172.071 18.2656 172.165 18.1719C172.29 18.0469 172.54 17.9844 172.915 17.9844C173.165 17.9844 173.399 18 173.618 18.0312C173.868 18.0312 174.118 18 174.368 17.9375C174.712 18.0938 174.774 18.2656 174.556 18.4531C174.368 18.6094 174.056 18.6719 173.618 18.6406C173.306 18.5469 173.102 18.5312 173.009 18.5938C172.946 18.6562 172.884 18.6719 172.821 18.6406C172.571 19.0469 172.29 19.4062 171.977 19.7188C171.696 20.0312 171.477 20.4219 171.321 20.8906ZM178.915 19.3906C179.071 19.3906 179.259 19.4062 179.477 19.4375C179.696 19.4375 179.821 19.5312 179.852 19.7188C179.79 20.0312 179.743 20.2188 179.712 20.2812C179.681 20.3125 179.634 20.3594 179.571 20.4219C179.477 20.5781 179.368 20.75 179.243 20.9375C179.149 21.0938 179.024 21.2031 178.868 21.2656C178.368 21.7031 177.899 22.1875 177.462 22.7188C177.024 23.2188 176.681 23.7656 176.431 24.3594C176.118 24.5781 175.868 24.8594 175.681 25.2031C175.524 25.5156 175.306 25.7969 175.024 26.0469C174.868 26.4219 174.634 26.7656 174.321 27.0781C174.009 27.3594 173.759 27.6719 173.571 28.0156C172.759 28.7656 172.04 29.5938 171.415 30.5C170.79 31.375 170.118 32.2188 169.399 33.0312C169.462 33.2812 169.462 33.5469 169.399 33.8281C169.368 34.1094 169.368 34.3906 169.399 34.6719C169.399 35.0781 169.431 35.4688 169.493 35.8438C169.556 36.2188 169.587 36.5781 169.587 36.9219C169.618 37.2969 169.556 37.6406 169.399 37.9531C169.274 38.2656 169.165 38.5781 169.071 38.8906C168.884 39.1094 168.727 39.3438 168.602 39.5938C168.477 39.8438 168.352 40.0938 168.227 40.3438C168.29 40.4062 168.306 40.5 168.274 40.625C168.274 40.75 168.306 40.8594 168.368 40.9531C168.399 41.0781 168.462 41.1719 168.556 41.2344C168.649 41.2969 168.727 41.375 168.79 41.4688C169.009 41.7188 169.134 42.0312 169.165 42.4062C169.227 42.75 169.259 43.1406 169.259 43.5781C169.259 43.8281 169.259 44.0938 169.259 44.375C169.259 44.625 169.227 44.875 169.165 45.125C169.04 45.5 168.915 45.7656 168.79 45.9219C168.665 46.0781 168.493 46.1875 168.274 46.25C168.118 46.3125 167.962 46.3438 167.806 46.3438C167.681 46.3438 167.54 46.3594 167.384 46.3906C167.04 46.4531 166.806 46.4688 166.681 46.4375C166.556 46.375 166.415 46.375 166.259 46.4375C165.821 46.3438 165.352 46.3438 164.852 46.4375C164.384 46.5312 163.915 46.5469 163.446 46.4844C163.227 46.4531 163.009 46.4219 162.79 46.3906C162.602 46.3594 162.399 46.375 162.181 46.4375C161.712 46.3438 161.196 46.3438 160.634 46.4375C160.071 46.5312 159.524 46.5 158.993 46.3438C158.837 46.3125 158.665 46.2656 158.477 46.2031C158.29 46.1406 158.134 46.0781 158.009 46.0156C157.571 45.7656 157.321 45.3281 157.259 44.7031C157.227 44.0469 157.196 43.4062 157.165 42.7812C157.227 42.7188 157.259 42.6406 157.259 42.5469C157.259 42.4219 157.29 42.2969 157.352 42.1719C157.415 41.9844 157.509 41.7969 157.634 41.6094C157.79 41.3906 157.884 41.2031 157.915 41.0469C157.915 40.9531 157.899 40.8594 157.868 40.7656C157.837 40.6719 157.837 40.5781 157.868 40.4844C157.868 40.3906 157.884 40.2969 157.915 40.2031C157.977 40.1094 157.993 40.0312 157.962 39.9688C157.931 39.75 157.837 39.5469 157.681 39.3594C157.556 39.1406 157.462 38.8906 157.399 38.6094C157.337 38.3594 157.306 38.0938 157.306 37.8125C157.306 37.5312 157.306 37.2188 157.306 36.875C157.306 36.4375 157.306 35.9844 157.306 35.5156C157.337 35.0469 157.368 34.5781 157.399 34.1094C157.431 34.0156 157.431 33.9219 157.399 33.8281C157.368 33.7031 157.352 33.5938 157.352 33.5C157.352 33.0312 157.243 32.7188 157.024 32.5625C156.806 32.4062 156.618 32.25 156.462 32.0938C156.337 31.9375 156.227 31.7969 156.134 31.6719C156.071 31.5156 155.962 31.375 155.806 31.25C155.649 31.0938 155.493 30.9531 155.337 30.8281C155.181 30.7031 155.071 30.5625 155.009 30.4062C154.977 30.2812 154.993 30.1406 155.056 29.9844C155.118 29.7969 155.134 29.625 155.102 29.4688C155.04 29.3125 154.931 29.1875 154.774 29.0938C154.618 28.9688 154.509 28.8281 154.446 28.6719C154.227 28.5156 153.977 28.3906 153.696 28.2969C153.446 28.1719 153.227 28.0312 153.04 27.875C152.821 27.5938 152.649 27.4219 152.524 27.3594C152.431 27.2656 152.337 27.1719 152.243 27.0781C152.024 26.8281 151.821 26.5469 151.634 26.2344C151.477 25.9219 151.29 25.6406 151.071 25.3906C150.915 25.1719 150.727 24.9688 150.509 24.7812C150.321 24.5625 150.337 24.2969 150.556 23.9844C150.493 23.7656 150.352 23.6094 150.134 23.5156C149.915 23.3906 149.681 23.3281 149.431 23.3281C149.368 23.1719 149.274 23.0469 149.149 22.9531C149.024 22.8594 148.899 22.7344 148.774 22.5781C148.681 22.4531 148.571 22.3125 148.446 22.1562C148.321 22 148.181 21.8438 148.024 21.6875C147.806 21.4688 147.602 21.2656 147.415 21.0781C147.259 20.8594 147.149 20.5938 147.087 20.2812C147.024 20.0312 147.056 19.8594 147.181 19.7656C147.274 19.6406 147.368 19.5 147.462 19.3438C148.774 19.4688 149.868 19.4688 150.743 19.3438C151.618 19.2188 152.556 19.2344 153.556 19.3906C153.868 19.7656 154.165 19.9531 154.446 19.9531C154.759 19.9219 155.071 19.8438 155.384 19.7188C155.727 19.5 155.977 19.4062 156.134 19.4375C156.29 19.4375 156.462 19.4375 156.649 19.4375C156.962 19.4375 157.227 19.4062 157.446 19.3438C157.665 19.2812 157.946 19.2656 158.29 19.2969C158.415 19.1719 158.54 19.1406 158.665 19.2031C158.821 19.2344 158.962 19.3125 159.087 19.4375C159.243 19.5625 159.384 19.7031 159.509 19.8594C159.634 19.9844 159.727 20.0938 159.79 20.1875C159.915 20.3125 160.04 20.4531 160.165 20.6094C160.29 20.7344 160.431 20.875 160.587 21.0312C160.712 21.1562 160.806 21.2812 160.868 21.4062C160.962 21.5 161.071 21.625 161.196 21.7812C161.352 22.0312 161.509 22.2812 161.665 22.5312C161.852 22.75 162.056 22.9844 162.274 23.2344C162.524 23.4531 162.743 23.6719 162.931 23.8906C163.118 24.1094 163.337 24.3281 163.587 24.5469C163.899 24.8594 164.196 25.1719 164.477 25.4844C164.79 25.7969 165.118 26.0781 165.462 26.3281C165.556 26.4531 165.649 26.5781 165.743 26.7031C165.837 26.7969 165.946 26.9219 166.071 27.0781C166.134 27.1406 166.243 27.2656 166.399 27.4531C166.556 27.6094 166.681 27.7031 166.774 27.7344C166.868 27.7344 166.977 27.6719 167.102 27.5469C167.227 27.3906 167.321 27.2812 167.384 27.2188C167.634 26.9375 167.852 26.6719 168.04 26.4219C168.259 26.1719 168.509 25.9062 168.79 25.625C168.946 25.4375 169.102 25.25 169.259 25.0625C169.446 24.8438 169.618 24.6406 169.774 24.4531C169.837 24.3906 169.884 24.3125 169.915 24.2188C169.946 24.125 169.993 24.0469 170.056 23.9844C170.212 23.8281 170.368 23.6875 170.524 23.5625C170.681 23.4062 170.821 23.25 170.946 23.0938C171.165 23.0938 171.368 23.0156 171.556 22.8594C171.743 22.6719 171.915 22.5 172.071 22.3438C172.134 21.8438 172.274 21.4531 172.493 21.1719C172.743 20.8594 172.993 20.5312 173.243 20.1875C173.306 20.0625 173.368 19.9531 173.431 19.8594C173.493 19.7656 173.571 19.6719 173.665 19.5781C173.884 19.4219 174.118 19.375 174.368 19.4375C174.649 19.4688 174.946 19.4688 175.259 19.4375C175.477 19.4375 175.712 19.4219 175.962 19.3906C176.212 19.3281 176.462 19.2812 176.712 19.25C177.118 19.2188 177.493 19.2344 177.837 19.2969C178.212 19.3594 178.571 19.3906 178.915 19.3906ZM158.712 22.7188C158.806 22.6562 158.899 22.5938 158.993 22.5312C159.087 22.4375 159.165 22.3281 159.227 22.2031C159.102 22.0781 158.962 21.9062 158.806 21.6875C158.681 21.4688 158.54 21.2812 158.384 21.125C158.196 20.875 157.993 20.7188 157.774 20.6562C157.524 20.6562 157.321 20.7969 157.165 21.0781C157.259 21.3281 157.29 21.6406 157.259 22.0156C157.227 22.3594 157.399 22.5938 157.774 22.7188C157.931 22.75 158.087 22.7656 158.243 22.7656C158.399 22.7344 158.556 22.7188 158.712 22.7188ZM160.868 43.9531C160.868 43.8906 160.852 43.7969 160.821 43.6719C160.79 43.5156 160.743 43.4062 160.681 43.3438C160.618 43.125 160.477 42.9688 160.259 42.875C160.04 42.7812 159.806 42.7812 159.556 42.875C159.399 43.0625 159.259 43.3125 159.134 43.625C159.009 43.9062 159.04 44.1719 159.227 44.4219C159.415 44.3594 159.54 44.3906 159.602 44.5156C159.696 44.6094 159.821 44.6406 159.977 44.6094C160.384 44.3594 160.618 44.2188 160.681 44.1875C160.774 44.1562 160.837 44.0781 160.868 43.9531ZM167.102 38.0469C167.04 37.8906 167.04 37.7812 167.102 37.7188C167.165 37.625 167.165 37.5156 167.102 37.3906C166.665 37.4531 166.29 37.5312 165.977 37.625C165.665 37.7188 165.352 37.8594 165.04 38.0469C165.071 38.3594 165.212 38.6094 165.462 38.7969C165.837 38.7656 166.165 38.7188 166.446 38.6562C166.727 38.5625 166.946 38.3594 167.102 38.0469ZM167.477 32.9375C167.665 32.5625 167.884 32.2344 168.134 31.9531C168.384 31.6719 168.618 31.3906 168.837 31.1094C168.743 30.8906 168.571 30.7812 168.321 30.7812C168.071 30.75 167.868 30.7656 167.712 30.8281C167.524 30.8906 167.368 31.0469 167.243 31.2969C167.149 31.5469 167.024 31.75 166.868 31.9062C166.649 32.0938 166.524 32.2656 166.493 32.4219C166.462 32.5781 166.431 32.7031 166.399 32.7969C166.399 32.9531 166.384 33.1562 166.352 33.4062C166.352 33.625 166.321 33.8125 166.259 33.9688C166.446 34.5 166.524 34.875 166.493 35.0938C166.493 35.2812 166.571 35.4531 166.727 35.6094C166.884 35.5469 167.024 35.4844 167.149 35.4219C167.274 35.3281 167.352 35.2031 167.384 35.0469C167.384 34.9219 167.352 34.7969 167.29 34.6719C167.259 34.5469 167.243 34.4062 167.243 34.25C167.212 33.9375 167.212 33.7031 167.243 33.5469C167.306 33.3594 167.384 33.1562 167.477 32.9375ZM147.321 22.625C147.259 22.75 147.259 22.8906 147.321 23.0469C147.415 23.2031 147.415 23.3281 147.321 23.4219C147.071 23.3906 146.931 23.2812 146.899 23.0938C146.837 22.9062 146.743 22.75 146.618 22.625C145.837 22.2188 145.274 21.7031 144.931 21.0781C144.868 20.7344 144.931 20.4375 145.118 20.1875C145.274 19.9375 145.493 19.8906 145.774 20.0469C145.899 20.1406 145.962 20.2656 145.962 20.4219C145.962 20.5781 145.931 20.7031 145.868 20.7969C145.899 21.0156 145.977 21.2031 146.102 21.3594C146.227 21.4844 146.368 21.625 146.524 21.7812C146.681 21.9375 146.837 22.0781 146.993 22.2031C147.118 22.3281 147.227 22.4688 147.321 22.625ZM148.165 24.6406C148.071 24.3594 148.087 24.1719 148.212 24.0781C148.368 23.9531 148.54 23.9219 148.727 23.9844C148.915 24.0156 149.087 24.1094 149.243 24.2656C149.431 24.4219 149.509 24.6094 149.477 24.8281C149.29 25.0781 149.04 25.1875 148.727 25.1562C148.446 25.125 148.259 24.9531 148.165 24.6406ZM174.274 29.2344C174.274 28.9844 174.352 28.7656 174.509 28.5781C174.696 28.3594 174.899 28.3281 175.118 28.4844C175.212 28.7969 175.134 29.0469 174.884 29.2344C174.665 29.3906 174.462 29.3906 174.274 29.2344ZM173.384 29.75C173.665 29.8125 173.821 29.9375 173.852 30.125C173.915 30.2812 173.899 30.4844 173.806 30.7344C173.587 31.1719 173.431 31.4531 173.337 31.5781C173.243 31.6719 173.165 31.7812 173.102 31.9062C172.977 32.1562 172.868 32.3281 172.774 32.4219C172.712 32.5156 172.634 32.6406 172.54 32.7969C172.352 33.2031 172.212 33.4375 172.118 33.5C172.056 33.5625 172.024 33.6406 172.024 33.7344C172.056 34.2344 172.04 34.625 171.977 34.9062C171.946 35.1562 171.946 35.4688 171.977 35.8438C171.852 35.9062 171.743 35.9844 171.649 36.0781C171.587 36.1406 171.493 36.2031 171.368 36.2656C171.306 36.3594 171.274 36.5156 171.274 36.7344C171.274 36.9531 171.259 37.1719 171.227 37.3906C171.227 37.6094 171.196 37.7969 171.134 37.9531C171.071 38.1094 170.962 38.1719 170.806 38.1406C170.649 37.7969 170.602 37.5469 170.665 37.3906C170.759 37.2031 170.821 37 170.852 36.7812C170.915 36.4688 170.915 36.1562 170.852 35.8438C170.79 35.5 170.743 35.1562 170.712 34.8125C170.649 34.4688 170.602 34.1562 170.571 33.875C170.54 33.5938 170.649 33.375 170.899 33.2188C170.962 32.875 171.102 32.6094 171.321 32.4219C171.571 32.2344 171.774 32.0156 171.931 31.7656C171.993 31.6406 172.04 31.5156 172.071 31.3906C172.134 31.2344 172.259 31.125 172.446 31.0625C172.665 30.6562 172.884 30.3906 173.102 30.2656C173.259 29.9531 173.337 29.7969 173.337 29.7969C173.368 29.7969 173.384 29.7812 173.384 29.75ZM156.462 45.875C156.618 46.0625 156.79 46.25 156.977 46.4375C157.196 46.5938 157.29 46.7969 157.259 47.0469C157.259 47.1406 157.196 47.2656 157.071 47.4219C156.977 47.5781 156.884 47.6719 156.79 47.7031C156.602 47.7344 156.399 47.6719 156.181 47.5156C155.993 47.3594 155.868 47.2188 155.806 47.0938C155.681 46.6875 155.587 46.4375 155.524 46.3438C155.493 46.25 155.462 46.1719 155.431 46.1094C155.431 45.7656 155.399 45.5625 155.337 45.5C155.306 45.4375 155.29 45.375 155.29 45.3125C155.259 45.0625 155.29 44.8594 155.384 44.7031C155.477 44.5469 155.509 44.375 155.477 44.1875C155.446 44.0625 155.384 43.9219 155.29 43.7656C155.196 43.6094 155.227 43.4531 155.384 43.2969C155.54 43.2969 155.665 43.2969 155.759 43.2969C155.852 43.2656 155.946 43.2812 156.04 43.3438C156.227 43.5938 156.259 43.8594 156.134 44.1406C156.009 44.3906 155.899 44.6406 155.806 44.8906C155.931 45.0469 156.024 45.2031 156.087 45.3594C156.181 45.5156 156.306 45.6875 156.462 45.875ZM170.056 45.0781C170.118 45.0156 170.212 45.0156 170.337 45.0781C170.462 45.1094 170.571 45.1406 170.665 45.1719C170.821 45.4219 170.915 45.6875 170.946 45.9688C171.009 46.25 170.993 46.5156 170.899 46.7656C170.837 47.0156 170.712 47.2344 170.524 47.4219C170.337 47.6094 170.087 47.7031 169.774 47.7031C169.618 47.7031 169.462 47.6875 169.306 47.6562C169.181 47.625 169.071 47.6719 168.977 47.7969C168.727 47.7031 168.477 47.7188 168.227 47.8438C168.009 47.9375 167.774 47.9531 167.524 47.8906C167.399 48.0156 167.212 48.0781 166.962 48.0781C166.743 48.0781 166.602 48 166.54 47.8438C166.54 47.6875 166.571 47.5156 166.634 47.3281C166.884 47.2656 167.149 47.2188 167.431 47.1875C167.743 47.1562 168.024 47.125 168.274 47.0938C168.462 47.0625 168.618 47.0625 168.743 47.0938C168.899 47.125 169.04 47.1094 169.165 47.0469C169.29 46.9844 169.431 46.8594 169.587 46.6719C169.774 46.4844 169.899 46.3281 169.962 46.2031C170.087 45.9219 170.118 45.5469 170.056 45.0781ZM164.712 47.9844C164.618 47.7344 164.696 47.5781 164.946 47.5156C165.196 47.4531 165.415 47.4375 165.602 47.4688C165.79 47.625 165.852 47.7812 165.79 47.9375C165.759 48.0625 165.665 48.1562 165.509 48.2188C165.384 48.2812 165.227 48.2969 165.04 48.2656C164.884 48.2344 164.774 48.1406 164.712 47.9844Z" fill="#0EA5E9"/>
<path d="M185.443 49V14.0909H191.767V43.6989H207.142V49H185.443ZM240.064 31.5455C240.064 35.3068 239.36 38.5284 237.951 41.2102C236.553 43.8807 234.644 45.9261 232.224 47.3466C229.814 48.767 227.082 49.4773 224.025 49.4773C220.968 49.4773 218.229 48.767 215.809 47.3466C213.4 45.9148 211.491 43.8636 210.082 41.1932C208.684 38.5114 207.985 35.2955 207.985 31.5455C207.985 27.7841 208.684 24.5682 210.082 21.8977C211.491 19.2159 213.4 17.1648 215.809 15.7443C218.229 14.3239 220.968 13.6136 224.025 13.6136C227.082 13.6136 229.814 14.3239 232.224 15.7443C234.644 17.1648 236.553 19.2159 237.951 21.8977C239.36 24.5682 240.064 27.7841 240.064 31.5455ZM233.707 31.5455C233.707 28.8977 233.292 26.6648 232.462 24.8466C231.644 23.017 230.508 21.6364 229.053 20.7045C227.599 19.7614 225.922 19.2898 224.025 19.2898C222.127 19.2898 220.451 19.7614 218.996 20.7045C217.542 21.6364 216.4 23.017 215.57 24.8466C214.752 26.6648 214.343 28.8977 214.343 31.5455C214.343 34.1932 214.752 36.4318 215.57 38.2614C216.4 40.0795 217.542 41.4602 218.996 42.4034C220.451 43.3352 222.127 43.8011 224.025 43.8011C225.922 43.8011 227.599 43.3352 229.053 42.4034C230.508 41.4602 231.644 40.0795 232.462 38.2614C233.292 36.4318 233.707 34.1932 233.707 31.5455ZM267.03 25.2386C266.745 24.3182 266.353 23.4943 265.853 22.767C265.365 22.0284 264.774 21.3977 264.081 20.875C263.399 20.3523 262.615 19.9602 261.728 19.6989C260.842 19.4261 259.876 19.2898 258.831 19.2898C256.956 19.2898 255.285 19.7614 253.819 20.7045C252.353 21.6477 251.2 23.0341 250.359 24.8636C249.53 26.6818 249.115 28.8977 249.115 31.5114C249.115 34.1477 249.53 36.3807 250.359 38.2102C251.189 40.0398 252.342 41.4318 253.819 42.3864C255.297 43.3295 257.013 43.8011 258.967 43.8011C260.74 43.8011 262.274 43.4602 263.569 42.7784C264.876 42.0966 265.882 41.1307 266.586 39.8807C267.291 38.6193 267.643 37.142 267.643 35.4489L269.075 35.6705H259.598V30.7273H273.763V34.9205C273.763 37.9091 273.126 40.4943 271.853 42.6761C270.581 44.858 268.831 46.5398 266.603 47.7216C264.376 48.892 261.819 49.4773 258.933 49.4773C255.717 49.4773 252.893 48.7557 250.461 47.3125C248.041 45.858 246.149 43.7955 244.785 41.125C243.433 38.4432 242.757 35.2614 242.757 31.5795C242.757 28.7614 243.155 26.2443 243.95 24.0284C244.757 21.8125 245.882 19.9318 247.325 18.3864C248.768 16.8295 250.461 15.6477 252.405 14.8409C254.348 14.0227 256.461 13.6136 258.745 13.6136C260.677 13.6136 262.478 13.8977 264.149 14.4659C265.819 15.0227 267.302 15.8182 268.598 16.8523C269.905 17.8864 270.978 19.1136 271.819 20.5341C272.66 21.9545 273.211 23.5227 273.473 25.2386H267.03ZM308.671 31.5455C308.671 35.3068 307.966 38.5284 306.557 41.2102C305.159 43.8807 303.25 45.9261 300.83 47.3466C298.421 48.767 295.688 49.4773 292.631 49.4773C289.574 49.4773 286.836 48.767 284.415 47.3466C282.006 45.9148 280.097 43.8636 278.688 41.1932C277.29 38.5114 276.591 35.2955 276.591 31.5455C276.591 27.7841 277.29 24.5682 278.688 21.8977C280.097 19.2159 282.006 17.1648 284.415 15.7443C286.836 14.3239 289.574 13.6136 292.631 13.6136C295.688 13.6136 298.421 14.3239 300.83 15.7443C303.25 17.1648 305.159 19.2159 306.557 21.8977C307.966 24.5682 308.671 27.7841 308.671 31.5455ZM302.313 31.5455C302.313 28.8977 301.898 26.6648 301.068 24.8466C300.25 23.017 299.114 21.6364 297.659 20.7045C296.205 19.7614 294.529 19.2898 292.631 19.2898C290.733 19.2898 289.057 19.7614 287.603 20.7045C286.148 21.6364 285.006 23.017 284.176 24.8466C283.358 26.6648 282.949 28.8977 282.949 31.5455C282.949 34.1932 283.358 36.4318 284.176 38.2614C285.006 40.0795 286.148 41.4602 287.603 42.4034C289.057 43.3352 290.733 43.8011 292.631 43.8011C294.529 43.8011 296.205 43.3352 297.659 42.4034C299.114 41.4602 300.25 40.0795 301.068 38.2614C301.898 36.4318 302.313 34.1932 302.313 31.5455Z" fill="#64748B"/>
</g>
<defs>
<filter id="filter0_d_1_22" x="0.703125" y="13.6136" width="311.968" height="45.0895" filterUnits="userSpaceOnUse" color-interpolation-filters="sRGB">
<feFlood flood-opacity="0" result="BackgroundImageFix"/>
<feColorMatrix in="SourceAlpha" type="matrix" values="0 0 0 0 0 0 0 0 0 0 0 0 0 0 0 0 0 0 127 0" result="hardAlpha"/>
<feOffset dy="4"/>
<feGaussianBlur stdDeviation="2"/>
<feComposite in2="hardAlpha" operator="out"/>
<feColorMatrix type="matrix" values="0 0 0 0 0 0 0 0 0 0 0 0 0 0 0 0 0 0 0.25 0"/>
<feBlend mode="normal" in2="BackgroundImageFix" result="effect1_dropShadow_1_22"/>
<feBlend mode="normal" in="SourceGraphic" in2="effect1_dropShadow_1_22" result="shape"/>
</filter>
</defs>
</svg>
